<svg width="490" height="425" viewBox="0 0 490 425" fill="none" xmlns="http://www.w3.org/2000/svg">
<path d="M20 74V2M38 2L20 20M56 2L20 38" stroke="black" stroke-width="3" stroke-linecap="round" stroke-linejoin="round"/>
<path d="M78 74V2L96 20V74" stroke="black" stroke-width="3" stroke-linecap="round" stroke-linejoin="round"/>
<path d="M146 2V74M146 20L164 38L146 56" stroke="black" stroke-width="3" stroke-linecap="round" stroke-linejoin="round"/>
<path d="M208 74.5V2.5L226 20.5M226 38L208 20" stroke="black" stroke-width="3" stroke-linecap="round" stroke-linejoin="round"/>
<path d="M269 74V2L287 20L269 38L287 74" stroke="black" stroke-width="3" stroke-linecap="round" stroke-linejoin="round"/>
<path d="M343 2.86035L316 38.8604L343 74.8604" stroke="black" stroke-width="3" stroke-linecap="round" stroke-linejoin="round"/>
<path d="M380 74.5004L416 2.50035M380 2.36035L416 74.3604" stroke="black" stroke-width="3" stroke-linecap="round" stroke-linejoin="round"/>
<path d="M460 74.3604V2.36035L478 20.3604L460 38.3604" stroke="black" stroke-width="3" stroke-linecap="round" stroke-linejoin="round"/>
<path d="M30.4688 98.751H26.1094V113.86H23.5156V98.751H20.4531V97.5791L23.5156 96.6416V95.6885C23.5156 91.4801 25.3542 89.376 29.0312 89.376C29.9375 89.376 31 89.5583 32.2188 89.9229L31.5469 92.001C30.5469 91.6781 29.6927 91.5166 28.9844 91.5166C28.0052 91.5166 27.2812 91.8447 26.8125 92.501C26.3438 93.1468 26.1094 94.1885 26.1094 95.626V96.7354H30.4688V98.751Z" fill="black"/>
<path d="M81.1875 96.7354V107.845C81.1875 109.241 81.5052 110.282 82.1406 110.97C82.776 111.657 83.7708 112.001 85.125 112.001C86.9167 112.001 88.224 111.511 89.0469 110.532C89.8802 109.553 90.2969 107.954 90.2969 105.735V96.7354H92.8906V113.86H90.75L90.375 111.563H90.2344C89.7031 112.407 88.9635 113.053 88.0156 113.501C87.0781 113.949 86.0052 114.173 84.7969 114.173C82.7135 114.173 81.151 113.678 80.1094 112.688C79.0781 111.699 78.5625 110.116 78.5625 107.938V96.7354H81.1875Z" fill="black"/>
<path d="M146.375 99.0479C147.062 98.1208 147.849 97.4541 148.734 97.0479C149.62 96.6312 150.615 96.4229 151.719 96.4229C153.958 96.4229 155.703 97.2041 156.953 98.7666C158.203 100.329 158.828 102.501 158.828 105.282C158.828 108.074 158.198 110.256 156.938 111.829C155.688 113.392 153.948 114.173 151.719 114.173C149.406 114.173 147.615 113.334 146.344 111.657H146.156L146.219 112.188C146.302 112.991 146.344 113.72 146.344 114.376V121.548H143.75V89.5479H146.344V96.8291C146.344 97.3708 146.312 98.1104 146.25 99.0479H146.375ZM151.375 98.626C149.625 98.626 148.354 99.1051 147.562 100.063C146.771 101.022 146.365 102.548 146.344 104.642V105.282C146.344 107.688 146.745 109.412 147.547 110.454C148.349 111.485 149.635 112.001 151.406 112.001C154.562 112.001 156.141 109.751 156.141 105.251C156.141 103.011 155.755 101.35 154.984 100.267C154.214 99.1729 153.01 98.626 151.375 98.626Z" fill="black"/>
<path d="M219.281 113.86L218.766 111.423H218.641C217.786 112.496 216.932 113.225 216.078 113.61C215.234 113.985 214.177 114.173 212.906 114.173C211.208 114.173 209.875 113.735 208.906 112.86C207.948 111.985 207.469 110.741 207.469 109.126C207.469 105.668 210.234 103.855 215.766 103.688L218.672 103.595V102.532C218.672 101.188 218.38 100.199 217.797 99.5635C217.224 98.9176 216.302 98.5947 215.031 98.5947C213.604 98.5947 211.99 99.0322 210.188 99.9072L209.391 97.9229C210.234 97.4645 211.156 97.1051 212.156 96.8447C213.167 96.5843 214.177 96.4541 215.188 96.4541C217.229 96.4541 218.74 96.9072 219.719 97.8135C220.708 98.7197 221.203 100.173 221.203 102.173V113.86H219.281ZM213.422 112.032C215.036 112.032 216.302 111.59 217.219 110.704C218.146 109.819 218.609 108.579 218.609 106.985V105.438L216.016 105.548C213.953 105.621 212.464 105.944 211.547 106.517C210.641 107.079 210.188 107.959 210.188 109.157C210.188 110.095 210.469 110.808 211.031 111.298C211.604 111.787 212.401 112.032 213.422 112.032Z" fill="black"/>
<path d="M279.562 96.4229C280.323 96.4229 281.005 96.4854 281.609 96.6104L281.25 99.0166C280.542 98.8604 279.917 98.7822 279.375 98.7822C277.99 98.7822 276.802 99.3447 275.812 100.47C274.833 101.595 274.344 102.996 274.344 104.673V113.86H271.75V96.7354H273.891L274.188 99.9072H274.312C274.948 98.7926 275.714 97.9333 276.609 97.3291C277.505 96.7249 278.49 96.4229 279.562 96.4229Z" fill="black"/>
<path d="M333.312 105.095C333.76 104.459 334.443 103.626 335.359 102.595L340.891 96.7354H343.969L337.031 104.032L344.453 113.86H341.312L335.266 105.767L333.312 107.454V113.86H330.75V89.5479H333.312V102.438C333.312 103.011 333.271 103.897 333.188 105.095H333.312Z" fill="black"/>
<path d="M406.766 96.7354V98.376L403.594 98.751C403.885 99.1156 404.146 99.5947 404.375 100.188C404.604 100.772 404.719 101.433 404.719 102.173C404.719 103.85 404.146 105.188 403 106.188C401.854 107.188 400.281 107.688 398.281 107.688C397.771 107.688 397.292 107.647 396.844 107.563C395.74 108.147 395.188 108.881 395.188 109.767C395.188 110.235 395.38 110.584 395.766 110.813C396.151 111.032 396.812 111.142 397.75 111.142H400.781C402.635 111.142 404.057 111.532 405.047 112.313C406.047 113.095 406.547 114.23 406.547 115.72C406.547 117.616 405.786 119.058 404.266 120.048C402.745 121.048 400.526 121.548 397.609 121.548C395.37 121.548 393.641 121.131 392.422 120.298C391.214 119.465 390.609 118.287 390.609 116.767C390.609 115.725 390.943 114.824 391.609 114.063C392.276 113.303 393.214 112.787 394.422 112.517C393.984 112.319 393.615 112.011 393.312 111.595C393.021 111.178 392.875 110.694 392.875 110.142C392.875 109.517 393.042 108.97 393.375 108.501C393.708 108.032 394.234 107.579 394.953 107.142C394.068 106.777 393.344 106.157 392.781 105.282C392.229 104.407 391.953 103.407 391.953 102.282C391.953 100.407 392.516 98.9645 393.641 97.9541C394.766 96.9333 396.359 96.4229 398.422 96.4229C399.318 96.4229 400.125 96.527 400.844 96.7354H406.766ZM393.109 116.735C393.109 117.662 393.5 118.366 394.281 118.845C395.062 119.324 396.182 119.563 397.641 119.563C399.818 119.563 401.427 119.235 402.469 118.579C403.521 117.933 404.047 117.053 404.047 115.938C404.047 115.011 403.76 114.366 403.188 114.001C402.615 113.647 401.536 113.47 399.953 113.47H396.844C395.667 113.47 394.75 113.751 394.094 114.313C393.438 114.876 393.109 115.683 393.109 116.735ZM394.516 102.22C394.516 103.418 394.854 104.324 395.531 104.938C396.208 105.553 397.151 105.86 398.359 105.86C400.891 105.86 402.156 104.631 402.156 102.173C402.156 99.5999 400.875 98.3135 398.312 98.3135C397.094 98.3135 396.156 98.6416 395.5 99.2979C394.844 99.9541 394.516 100.928 394.516 102.22Z" fill="black"/>
<path d="M469.734 113.86L466.594 103.813C466.396 103.199 466.026 101.803 465.484 99.626H465.359C464.943 101.449 464.578 102.855 464.266 103.845L461.031 113.86H458.031L453.359 96.7354H456.078C457.182 101.037 458.021 104.313 458.594 106.563C459.177 108.813 459.51 110.329 459.594 111.11H459.719C459.833 110.517 460.016 109.751 460.266 108.813C460.526 107.866 460.75 107.116 460.938 106.563L464.078 96.7354H466.891L469.953 106.563C470.536 108.355 470.932 109.86 471.141 111.079H471.266C471.307 110.704 471.417 110.126 471.594 109.345C471.781 108.563 472.87 104.36 474.859 96.7354H477.547L472.812 113.86H469.734Z" fill="black"/>
<path d="M20 375.5V303.5L38 321.5M2 321.36L20 303.36" stroke="black" stroke-width="3" stroke-linecap="round" stroke-linejoin="round"/>
<path d="M74 375.49V303.49L92 321.49L74 339.49L92 357.49L74 375.49Z" stroke="black" stroke-width="3" stroke-linecap="round" stroke-linejoin="round"/>
<path d="M274 375.36V303.36L292 321.36" stroke="black" stroke-width="3" stroke-linecap="round" stroke-linejoin="round"/>
<path d="M128 375.721V303.721L146 321.721L164 303.721V375.721" stroke="black" stroke-width="3" stroke-linecap="round" stroke-linejoin="round"/>
<path d="M198 375.721V303.721L234 339.721M234 375.721V303.721L198 339.721" stroke="black" stroke-width="3" stroke-linecap="round" stroke-linejoin="round"/>
<path d="M321 303.36L348 339.36L321 375.36M357 303.36L330 339.36L357 375.36" stroke="black" stroke-width="3" stroke-linecap="round" stroke-linejoin="round"/>
<path d="M422 375.36L386 330.36L404 303.36L422 330.36L386 375.36" stroke="black" stroke-width="3" stroke-linecap="round" stroke-linejoin="round"/>
<path d="M452 375.36V303.36L488 375.36V303.36L452 375.36Z" stroke="black" stroke-width="3" stroke-linecap="round" stroke-linejoin="round"/>
<path d="M474.406 412.424H474.266C473.068 414.163 471.276 415.033 468.891 415.033C466.651 415.033 464.906 414.268 463.656 412.736C462.417 411.205 461.797 409.028 461.797 406.205C461.797 403.382 462.422 401.189 463.672 399.627C464.922 398.064 466.661 397.283 468.891 397.283C471.214 397.283 472.995 398.127 474.234 399.814H474.438L474.328 398.58L474.266 397.377V390.408H476.859V414.721H474.75L474.406 412.424ZM469.219 412.861C470.99 412.861 472.271 412.382 473.062 411.424C473.865 410.455 474.266 408.898 474.266 406.752V406.205C474.266 403.778 473.859 402.049 473.047 401.018C472.245 399.976 470.958 399.455 469.188 399.455C467.667 399.455 466.5 400.049 465.688 401.236C464.885 402.413 464.484 404.08 464.484 406.236C464.484 408.424 464.885 410.075 465.688 411.189C466.49 412.304 467.667 412.861 469.219 412.861Z" fill="black"/>
<path d="M412.531 406.143C412.531 408.934 411.828 411.117 410.422 412.689C409.016 414.252 407.073 415.033 404.594 415.033C403.062 415.033 401.703 414.674 400.516 413.955C399.328 413.236 398.411 412.205 397.766 410.861C397.12 409.518 396.797 407.945 396.797 406.143C396.797 403.351 397.495 401.179 398.891 399.627C400.286 398.064 402.224 397.283 404.703 397.283C407.099 397.283 409 398.08 410.406 399.674C411.823 401.268 412.531 403.424 412.531 406.143ZM399.484 406.143C399.484 408.33 399.922 409.997 400.797 411.143C401.672 412.288 402.958 412.861 404.656 412.861C406.354 412.861 407.641 412.294 408.516 411.158C409.401 410.012 409.844 408.34 409.844 406.143C409.844 403.965 409.401 402.314 408.516 401.189C407.641 400.054 406.344 399.486 404.625 399.486C402.927 399.486 401.646 400.044 400.781 401.158C399.917 402.273 399.484 403.934 399.484 406.143Z" fill="black"/>
<path d="M342.578 422.408C341.682 422.408 340.948 422.278 340.375 422.018V419.908C341 420.117 341.635 420.221 342.281 420.221C343.74 420.221 344.469 419.325 344.469 417.533V403.643C344.469 402.247 344.151 401.205 343.516 400.518C342.88 399.83 341.885 399.486 340.531 399.486C338.74 399.486 337.427 399.971 336.594 400.939C335.76 401.908 335.344 403.507 335.344 405.736V414.721H332.75V397.596H334.859L335.281 399.939H335.438C335.979 399.085 336.719 398.429 337.656 397.971C338.594 397.512 339.635 397.283 340.781 397.283C342.896 397.283 344.469 397.783 345.5 398.783C346.542 399.773 347.062 401.361 347.062 403.549V417.346C347.062 418.95 346.698 420.195 345.969 421.08C345.24 421.965 344.109 422.408 342.578 422.408Z" fill="black"/>
<path d="M225.578 414.721V403.58C225.578 402.215 225.286 401.195 224.703 400.518C224.12 399.83 223.214 399.486 221.984 399.486C220.37 399.486 219.177 399.95 218.406 400.877C217.635 401.804 217.25 403.231 217.25 405.158V414.721H214.656V403.58C214.656 402.215 214.365 401.195 213.781 400.518C213.198 399.83 212.286 399.486 211.047 399.486C209.422 399.486 208.229 399.976 207.469 400.955C206.719 401.924 206.344 403.518 206.344 405.736V414.721H203.75V397.596H205.859L206.281 399.939H206.406C206.896 399.106 207.583 398.455 208.469 397.986C209.365 397.518 210.365 397.283 211.469 397.283C214.146 397.283 215.896 398.252 216.719 400.189H216.844C217.354 399.294 218.094 398.585 219.062 398.064C220.031 397.544 221.135 397.283 222.375 397.283C224.312 397.283 225.76 397.783 226.719 398.783C227.688 399.773 228.172 401.361 228.172 403.549V414.721H225.578Z" fill="black"/>
<path d="M147.984 415.033C145.453 415.033 143.453 414.262 141.984 412.721C140.526 411.179 139.797 409.038 139.797 406.299C139.797 403.538 140.474 401.346 141.828 399.721C143.193 398.096 145.021 397.283 147.312 397.283C149.458 397.283 151.156 397.992 152.406 399.408C153.656 400.814 154.281 402.674 154.281 404.986V406.627H142.484C142.536 408.637 143.042 410.163 144 411.205C144.969 412.247 146.328 412.768 148.078 412.768C149.922 412.768 151.745 412.382 153.547 411.611V413.924C152.63 414.32 151.76 414.601 150.938 414.768C150.125 414.945 149.141 415.033 147.984 415.033ZM147.281 399.455C145.906 399.455 144.807 399.903 143.984 400.799C143.172 401.695 142.693 402.934 142.547 404.518H151.5C151.5 402.882 151.135 401.632 150.406 400.768C149.677 399.893 148.635 399.455 147.281 399.455Z" fill="black"/>
<path d="M83.7188 397.314C85.9688 397.314 87.7135 398.085 88.9531 399.627C90.2031 401.158 90.8281 403.33 90.8281 406.143C90.8281 408.955 90.1979 411.143 88.9375 412.705C87.6875 414.257 85.9479 415.033 83.7188 415.033C82.6042 415.033 81.5833 414.83 80.6562 414.424C79.7396 414.007 78.9688 413.372 78.3438 412.518H78.1562L77.6094 414.721H75.75V390.408H78.3438V396.314C78.3438 397.637 78.3021 398.825 78.2188 399.877H78.3438C79.5521 398.169 81.3438 397.314 83.7188 397.314ZM83.3438 399.486C81.5729 399.486 80.2969 399.997 79.5156 401.018C78.7344 402.028 78.3438 403.736 78.3438 406.143C78.3438 408.549 78.7448 410.273 79.5469 411.314C80.349 412.346 81.6354 412.861 83.4062 412.861C85 412.861 86.1875 412.283 86.9688 411.127C87.75 409.96 88.1406 408.288 88.1406 406.111C88.1406 403.882 87.75 402.221 86.9688 401.127C86.1875 400.033 84.9792 399.486 83.3438 399.486Z" fill="black"/>
<path d="M24.2812 412.893C24.7396 412.893 25.1823 412.861 25.6094 412.799C26.0365 412.726 26.375 412.653 26.625 412.58V414.564C26.3438 414.7 25.9271 414.809 25.375 414.893C24.8333 414.986 24.3438 415.033 23.9062 415.033C20.5938 415.033 18.9375 413.288 18.9375 409.799V399.611H16.4844V398.361L18.9375 397.283L20.0312 393.627H21.5312V397.596H26.5V399.611H21.5312V409.689C21.5312 410.721 21.776 411.512 22.2656 412.064C22.7552 412.617 23.4271 412.893 24.2812 412.893Z" fill="black"/>
<path d="M281.344 414.721H278.75V390.408H281.344V414.721Z" fill="black"/>
<path d="M11 153V225M38 153V225M11 180L38 198" stroke="black" stroke-width="3" stroke-linecap="round" stroke-linejoin="round"/>
<path d="M88 153V225M79 180.36L97 198.36" stroke="black" stroke-width="3" stroke-linecap="round" stroke-linejoin="round"/>
<path d="M148 153.36V225.36" stroke="black" stroke-width="3" stroke-linecap="round" stroke-linejoin="round"/>
<path d="M202 153L184 175.5L202 198M202 225.36L220 202.86L202 180.36" stroke="black" stroke-width="3" stroke-linecap="round" stroke-linejoin="round"/>
<path d="M281 171.36L263 153.36V225.36L245 207.36" stroke="black" stroke-width="3" stroke-linecap="round" stroke-linejoin="round"/>
<path d="M351 225.36L333 207.36L315 225.36V153.36L333 171.36L351 153.36" stroke="black" stroke-width="3" stroke-linecap="round" stroke-linejoin="round"/>
<path d="M398 224.86V152.86M416 152.86L398 170.86L380 152.86" stroke="black" stroke-width="3" stroke-linecap="round" stroke-linejoin="round"/>
<path d="M452 151.86V196.86L470 178.86V223.86" stroke="black" stroke-width="3" stroke-linecap="round" stroke-linejoin="round"/>
<path d="M28.4688 264.36V253.282C28.4688 251.886 28.151 250.845 27.5156 250.157C26.8802 249.47 25.8854 249.126 24.5312 249.126C22.7292 249.126 21.4115 249.616 20.5781 250.595C19.7552 251.574 19.3438 253.178 19.3438 255.407V264.36H16.75V240.048H19.3438V247.407C19.3438 248.293 19.3021 249.027 19.2188 249.61H19.375C19.8854 248.787 20.6094 248.142 21.5469 247.673C22.4948 247.194 23.5729 246.954 24.7812 246.954C26.875 246.954 28.4427 247.454 29.4844 248.454C30.5365 249.444 31.0625 251.022 31.0625 253.188V264.36H28.4688Z" fill="black"/>
<path d="M335.719 264.673C334.604 264.673 333.583 264.47 332.656 264.063C331.74 263.647 330.969 263.011 330.344 262.157H330.156C330.281 263.157 330.344 264.105 330.344 265.001V272.048H327.75V247.235H329.859L330.219 249.579H330.344C331.01 248.642 331.786 247.965 332.672 247.548C333.557 247.131 334.573 246.923 335.719 246.923C337.99 246.923 339.74 247.699 340.969 249.251C342.208 250.803 342.828 252.98 342.828 255.782C342.828 258.595 342.198 260.782 340.938 262.345C339.688 263.897 337.948 264.673 335.719 264.673ZM335.344 249.126C333.594 249.126 332.328 249.61 331.547 250.579C330.766 251.548 330.365 253.09 330.344 255.204V255.782C330.344 258.188 330.745 259.912 331.547 260.954C332.349 261.985 333.635 262.501 335.406 262.501C336.885 262.501 338.042 261.902 338.875 260.704C339.719 259.506 340.141 257.855 340.141 255.751C340.141 253.616 339.719 251.98 338.875 250.845C338.042 249.699 336.865 249.126 335.344 249.126Z" fill="black"/>
<path d="M463.797 259.688C463.797 261.282 463.203 262.511 462.016 263.376C460.828 264.241 459.161 264.673 457.016 264.673C454.745 264.673 452.974 264.313 451.703 263.595V261.188C452.526 261.605 453.406 261.933 454.344 262.173C455.292 262.412 456.203 262.532 457.078 262.532C458.432 262.532 459.474 262.319 460.203 261.892C460.932 261.454 461.297 260.793 461.297 259.907C461.297 259.241 461.005 258.673 460.422 258.204C459.849 257.725 458.724 257.162 457.047 256.517C455.453 255.923 454.318 255.407 453.641 254.97C452.974 254.522 452.474 254.017 452.141 253.454C451.818 252.892 451.656 252.22 451.656 251.438C451.656 250.043 452.224 248.944 453.359 248.142C454.495 247.329 456.052 246.923 458.031 246.923C459.875 246.923 461.677 247.298 463.438 248.048L462.516 250.157C460.797 249.449 459.24 249.095 457.844 249.095C456.615 249.095 455.688 249.287 455.062 249.673C454.438 250.058 454.125 250.59 454.125 251.267C454.125 251.725 454.24 252.116 454.469 252.438C454.708 252.761 455.089 253.069 455.609 253.36C456.13 253.652 457.13 254.074 458.609 254.626C460.641 255.366 462.01 256.11 462.719 256.86C463.438 257.61 463.797 258.553 463.797 259.688Z" fill="black"/>
<path d="M403.703 264.36H391.281V262.595L400.625 249.251H391.859V247.235H403.469V249.251L394.25 262.345H403.703V264.36Z" fill="black"/>
<path d="M149.344 265.36H146.75V248.235H149.344V265.36ZM146.531 243.595C146.531 243.001 146.677 242.569 146.969 242.298C147.26 242.017 147.625 241.876 148.062 241.876C148.479 241.876 148.839 242.017 149.141 242.298C149.443 242.579 149.594 243.011 149.594 243.595C149.594 244.178 149.443 244.616 149.141 244.907C148.839 245.188 148.479 245.329 148.062 245.329C147.625 245.329 147.26 245.188 146.969 244.907C146.677 244.616 146.531 244.178 146.531 243.595Z" fill="black"/>
<path d="M93.4688 265.36V254.282C93.4688 252.886 93.151 251.845 92.5156 251.157C91.8802 250.47 90.8854 250.126 89.5312 250.126C87.7396 250.126 86.4271 250.61 85.5938 251.579C84.7604 252.548 84.3438 254.147 84.3438 256.376V265.36H81.75V248.235H83.8594L84.2812 250.579H84.4062C84.9375 249.735 85.6823 249.084 86.6406 248.626C87.599 248.157 88.6667 247.923 89.8438 247.923C91.9062 247.923 93.4583 248.423 94.5 249.423C95.5417 250.412 96.0625 252.001 96.0625 254.188V265.36H93.4688Z" fill="black"/>
<path d="M198.672 273.048C197.682 273.048 196.88 272.918 196.266 272.657V270.548C196.984 270.756 197.693 270.86 198.391 270.86C199.203 270.86 199.797 270.636 200.172 270.188C200.557 269.751 200.75 269.079 200.75 268.173V248.235H203.344V267.985C203.344 271.36 201.786 273.048 198.672 273.048ZM200.531 243.595C200.531 243.001 200.677 242.569 200.969 242.298C201.26 242.017 201.625 241.876 202.062 241.876C202.479 241.876 202.839 242.017 203.141 242.298C203.443 242.579 203.594 243.011 203.594 243.595C203.594 244.178 203.443 244.616 203.141 244.907C202.839 245.188 202.479 245.329 202.062 245.329C201.625 245.329 201.26 245.188 200.969 244.907C200.677 244.616 200.531 244.178 200.531 243.595Z" fill="black"/>
<path d="M253.469 260.626C253.469 258.949 254.115 257.647 255.406 256.72C256.698 255.782 258.667 255.272 261.312 255.188L264.188 255.095V254.032C264.188 252.688 263.885 251.699 263.281 251.063C262.677 250.418 261.755 250.095 260.516 250.095C259.016 250.095 257.417 250.532 255.719 251.407L254.906 249.423C255.677 248.996 256.578 248.647 257.609 248.376C258.651 248.095 259.682 247.954 260.703 247.954C262.057 247.954 263.161 248.183 264.016 248.642C264.88 249.09 265.526 249.808 265.953 250.798C266.505 249.881 267.224 249.173 268.109 248.673C269.005 248.173 270.026 247.923 271.172 247.923C273.172 247.923 274.776 248.621 275.984 250.017C277.193 251.402 277.797 253.251 277.797 255.563V257.235H266.844C266.927 261.35 268.604 263.407 271.875 263.407C272.823 263.407 273.703 263.319 274.516 263.142C275.339 262.954 276.188 262.657 277.062 262.251V264.563C276.167 264.959 275.328 265.241 274.547 265.407C273.776 265.584 272.865 265.673 271.812 265.673C268.802 265.673 266.646 264.459 265.344 262.032C264.5 263.355 263.562 264.293 262.531 264.845C261.51 265.397 260.302 265.673 258.906 265.673C257.208 265.673 255.875 265.23 254.906 264.345C253.948 263.459 253.469 262.22 253.469 260.626ZM256.188 260.657C256.188 261.647 256.464 262.376 257.016 262.845C257.578 263.303 258.318 263.532 259.234 263.532C260.745 263.532 261.938 263.095 262.812 262.22C263.688 261.334 264.125 260.09 264.125 258.485V256.938L261.656 257.048C259.719 257.131 258.323 257.459 257.469 258.032C256.615 258.595 256.188 259.47 256.188 260.657ZM271.141 250.095C269.88 250.095 268.885 250.527 268.156 251.392C267.438 252.256 267.021 253.511 266.906 255.157H275.016C275.016 253.532 274.682 252.282 274.016 251.407C273.349 250.532 272.391 250.095 271.141 250.095Z" fill="black"/>
</svg>
