<svg width="1128" height="703" viewBox="0 0 1128 703" fill="none" xmlns="http://www.w3.org/2000/svg">
<path d="M564.376 496.968C564.376 496.968 561.396 493.235 559.893 496.968C558.402 500.702 559.893 507.417 559.893 507.417L551.69 513.392C551.69 513.392 546.467 513.392 540.493 520.107C534.519 526.822 535.271 528.313 533.029 529.816C530.787 531.307 527.067 534.289 521.093 535.78C515.119 537.27 506.165 540.252 503.935 540.252C501.706 540.252 498.713 538.761 493.49 535.78C488.268 532.798 483.784 523.089 483.784 523.089C483.784 523.089 477.071 518.444 478.562 517.779C480.052 517.113 492.739 508.156 492.739 508.156C492.739 508.156 494.981 505.174 492.739 501.441C490.497 497.708 489.758 490.993 486.765 491.744C483.784 492.484 479.621 497.72 478.34 497.72C477.059 497.72 474.83 493.124 475.569 491.695C476.32 490.253 480.04 496.858 482.282 491.695L484.523 486.533L480.791 482.799C480.791 482.799 474.078 476.836 479.301 474.593L484.523 472.351C484.523 472.351 484.523 467.866 481.543 467.866H475.421C475.421 467.866 474.522 464.885 475.421 461.903L476.32 458.921L475.027 451.455C475.027 451.455 472.526 445.43 475.31 444.69C478.094 443.939 481.493 445.232 483.735 444.481C485.977 443.729 491.717 441.647 495.449 440.366C499.181 439.084 487.024 434.821 487.024 434.821L479.793 436.423C479.793 436.423 469.755 433.552 473.783 431.31L477.81 429.067L472.736 420.11C472.736 420.11 469.151 417.868 472.736 414.134C476.32 410.401 483.784 404.438 483.784 404.438L489.007 396.232L496.471 389.517C496.471 389.517 501.694 391.759 503.935 389.517C506.177 387.274 506.177 380.559 508.407 379.069C510.648 377.578 517.755 379.069 517.755 379.069C517.755 379.069 522.584 376.087 524.813 374.596C527.055 373.105 530.787 368.62 530.787 368.62L527.806 359.478L526.316 352.948L533.78 359.478H562.135L570.338 352.948L574.07 346.985H568.096L559.893 352.209H553.18L550.199 342.512C550.199 342.512 550.199 343.251 553.18 338.04C556.161 332.816 559.142 324.597 561.383 323.107C563.625 321.616 569.587 318.634 569.587 318.634C569.587 318.634 568.835 317.883 574.058 314.901L579.28 311.919L574.809 306.695C574.809 306.695 580.032 302.962 579.28 302.222C578.529 301.471 574.206 299.241 579.354 297.75C584.503 296.259 588.235 292.526 588.235 292.526V279.835L599.431 270.878L594.948 262.672C594.948 262.672 597.929 262.672 599.431 259.69C600.922 256.709 599.431 249.994 599.431 249.994C599.431 249.994 603.164 243.279 605.393 242.527C607.635 241.776 615.838 230.588 615.838 230.588C615.838 230.588 611.355 229.097 615.838 222.382L620.322 215.667L627.786 206.71L631.518 199.995H638.982L633.76 191.789C633.76 191.789 630.779 187.317 634.511 185.814C638.243 184.323 634.511 180.589 638.982 178.347C643.453 176.105 640.473 173.123 643.453 176.105C646.434 179.086 649.427 172.371 650.166 176.105C650.918 179.838 657.631 175.353 657.631 175.353C657.631 175.353 658.37 169.747 657.631 168.823C656.879 167.899 656.054 166.396 657.963 163.414C659.872 160.432 655.389 161.171 659.872 160.432C664.344 159.681 659.872 152.966 659.872 153.717C659.872 154.469 650.166 159.693 647.937 160.432C645.695 161.184 640.473 164.917 638.231 165.656C635.989 166.408 628.537 167.147 626.295 168.638C624.054 170.129 624.054 165.656 626.295 164.165C628.537 162.675 630.767 159.693 633.76 156.699C636.741 153.717 641.224 154.457 636.74 153.717C632.269 152.966 628.537 153.656 628.537 153.656L627.786 144.76C627.786 144.76 630.767 147.742 633.008 144.76C635.25 141.778 639.721 141.027 639.721 141.027C639.721 141.027 641.963 135.051 642.702 132.821C643.084 131.675 644.636 129.556 646.065 127.757C647.432 126.044 648.676 124.615 648.676 124.615L650.918 139.536C650.918 139.536 647.937 142.517 655.401 143.269C662.865 144.021 656.892 143.269 662.865 144.021C668.839 144.772 667.337 140.287 669.578 139.536C671.82 138.797 678.607 133.979 678.607 133.979L683.09 129.506C683.09 129.506 675.552 119.391 674.062 124.615C672.572 129.839 665.033 130.504 665.033 130.504L665.107 122.976L674.062 113.415C674.062 113.415 678.545 111.173 680.775 113.415C683.017 115.658 684.507 115.658 686.749 115.658C688.99 115.658 691.232 115.904 689.73 112.417C688.239 108.93 687.488 113.415 688.239 108.93C688.99 104.458 693.462 101.464 693.462 101.464C693.462 101.464 691.971 97.7306 693.462 95.4882C694.952 93.2457 697.933 85.7792 700.175 85.7792C702.416 85.7792 706.888 82.0459 709.129 85.7792C711.371 89.5125 712.861 90.2518 713.6 92.4942C714.352 94.7366 720.313 91.7425 720.313 91.7425L715.842 106.676C715.842 106.676 716.594 114.881 720.313 112.651C724.045 110.409 727.026 102.955 727.026 102.955V94.7489L734.491 89.5248L737.471 84.1405L732.249 79.0766H737.471C737.471 79.0766 747.916 71.61 750.158 71.61C752.4 71.61 757.622 80.5674 758.374 82.8098C759.113 85.0522 761.355 87.2824 763.596 88.7855C765.838 90.2764 771.061 85.8039 771.061 85.8039V76.8465C771.061 76.8465 770.309 71.6224 768.08 71.6224C765.85 71.6224 762.106 64.9074 759.877 64.9074C757.647 64.9074 749.431 60.4349 749.431 60.4349L761.367 52.2291C761.367 52.2291 768.831 47.005 771.073 52.2291C773.315 57.4532 774.805 61.1864 774.805 61.1864C774.805 61.1864 782.269 57.4532 784.511 55.2108C786.753 52.9683 791.224 54.4592 791.224 54.4592L786.753 49.9004C786.753 49.9004 786.753 43.2717 791.224 43.2717C795.695 43.2717 801.669 47.0049 801.669 47.0049L805.401 35.8052H809.872C809.872 35.8052 811.363 42.5201 809.872 46.2534C808.382 49.9866 803.899 61.1741 803.16 63.4165C802.408 65.659 795.695 79.0889 795.695 79.0889C795.695 79.0889 804.65 75.3556 806.892 73.1132C809.133 70.8707 813.605 58.1802 814.356 54.4592C815.095 50.7259 821.069 42.5201 821.069 42.5201C821.069 42.5201 824.801 50.7259 825.552 55.9623C826.304 61.1864 831.514 66.4105 831.514 66.4105C831.514 66.4105 835.997 56.7016 835.997 54.4715C835.997 52.2414 837.488 49.2474 835.997 46.2657C834.507 43.284 836.663 35.8175 836.663 35.8175H848.684L855.397 43.284L847.933 52.9807L847.182 61.9381L855.385 58.9563L864.34 49.999C864.34 49.999 866.581 53.7322 871.052 54.4715C875.524 55.223 881.498 55.9623 882.988 58.2048C884.478 60.4472 878.504 52.2414 884.478 60.4472C890.452 68.653 894.923 70.1438 891.943 73.8771C888.962 77.6103 895.675 74.6287 888.962 77.6104C882.249 80.5921 882.249 81.3437 873.294 81.3437C864.34 81.3437 858.366 80.6044 856.136 80.6044C853.907 80.6044 851.665 84.3377 859.117 86.5801C866.581 88.8225 869.562 88.8101 873.294 91.0526C877.026 93.295 880.007 94.7858 882.249 95.5374C884.491 96.2767 899.407 104.495 899.407 104.495C899.407 104.495 904.629 103.743 906.871 100.022C909.113 96.289 900.158 94.7982 909.113 96.289C918.068 97.7798 927.761 100.022 927.761 100.022C927.761 100.022 930.742 102.265 927.761 104.495C924.781 106.737 921.787 106.737 919.558 108.228C917.316 109.719 915.826 111.21 918.068 112.701C920.309 114.191 925.532 114.943 925.532 114.943L943.441 118.676L960.599 125.391L977.757 130.615C977.757 130.615 988.954 138.821 992.686 143.306C996.418 147.779 994.928 148.53 1006.11 158.239C1017.31 167.936 1030.73 177.645 1030.73 177.645C1030.73 177.645 1043.42 182.117 1045.66 185.111C1047.9 188.093 1056.11 195.559 1058.35 199.293C1060.59 203.026 1065.06 217.207 1065.06 221.68C1065.06 226.153 1061.33 232.128 1055.36 235.861C1049.38 239.595 1050.13 239.595 1045.65 244.067C1041.18 248.54 1038.19 259 1032.96 260.491C1027.74 261.982 1019.54 264.224 1012.81 261.243C1006.1 258.261 987.439 248.552 979.235 247.061C971.032 245.57 947.9 233.631 945.658 232.88C943.417 232.128 936.704 228.407 930.73 224.674C924.756 220.941 919.533 215.717 918.794 222.432C918.043 229.146 927.749 231.389 931.481 238.104C935.213 244.819 930.73 244.067 938.194 252.285C945.658 260.504 950.881 259 953.123 264.224C955.364 269.449 955.364 271.691 953.874 281.388C952.384 291.084 949.391 294.078 952.384 299.302C955.364 304.526 962.09 315.726 964.319 320.199C966.561 324.671 965.809 326.914 971.783 330.647C977.757 334.38 979.987 335.12 985.961 341.095C991.934 347.071 1004.62 352.295 1006.11 350.053C1007.6 347.81 1010.58 338.114 1009.09 335.871C1007.6 333.629 1003.12 329.895 1000.89 329.895C998.66 329.895 989.693 324.671 988.202 317.956C986.712 311.241 987.451 303.023 991.183 303.023C994.915 303.023 991.183 292.575 1000.89 302.272C1010.58 311.968 1007.6 314.211 1013.58 317.205C1019.55 320.187 1027 318.696 1027 318.696L1040.43 314.962C1040.43 314.962 1050.13 319.447 1050.87 316.453C1051.62 313.472 1042.67 302.272 1041.92 300.029C1041.17 297.787 1033.71 296.296 1037.45 288.09C1041.18 279.884 1045.65 276.151 1045.65 273.909C1045.65 271.666 1057.59 258.976 1059.83 257.485C1062.07 255.994 1056.1 253.012 1070.27 247.776C1084.45 242.552 1086.69 243.303 1088.18 245.533C1089.67 247.776 1106.09 259.715 1106.09 259.715L1109.07 244.794V229.122C1109.07 229.122 1112.05 219.413 1109.07 217.183C1106.09 214.953 1100.87 216.444 1104.59 208.977C1108.32 201.51 1109.48 194.044 1110.39 191.814C1111.3 189.571 1111.72 180.614 1110.39 178.384C1109.06 176.141 1103.1 165.693 1103.1 165.693L1094.14 153.003C1094.14 153.003 1109.68 147.779 1111.24 150.021C1112.8 152.263 1118.03 154.506 1120.26 154.506C1122.49 154.506 1129.21 151.524 1133.68 157.488C1138.15 163.463 1147.86 176.141 1147.86 176.141C1147.86 176.141 1150.1 183.608 1147.86 185.838C1145.62 188.081 1137.41 189.571 1135.17 190.323C1132.93 191.075 1128.46 195.547 1126.97 198.529C1125.48 201.511 1118.77 206.735 1123.99 210.468C1129.21 214.201 1129.21 217.183 1136.68 221.668C1144.14 226.14 1147.87 230.625 1153.09 229.873C1158.32 229.122 1165.78 228.383 1168.76 220.916C1171.74 213.45 1173.23 211.207 1174.72 204.492C1176.21 197.777 1171.74 192.553 1179.21 188.068C1186.67 183.596 1186.67 182.844 1196.36 176.868C1206.07 170.893 1197.12 171.644 1215.76 164.178C1234.41 156.711 1241.88 152.239 1241.88 152.239C1241.88 152.239 1248.59 149.996 1250.83 147.766C1253.07 145.524 1251.58 144.033 1255.3 141.051C1259.04 138.07 1265.01 135.076 1266.5 140.312C1267.99 145.536 1267.99 144.045 1266.5 150.76C1265.01 157.475 1269.48 157.475 1267.62 161.96C1265.76 166.433 1261.28 166.433 1258.3 169.427C1255.32 172.408 1261.28 176.141 1263.52 176.141C1265.76 176.141 1273.21 168.675 1275.45 168.675C1277.7 168.675 1282.17 174.651 1282.17 174.651C1282.17 174.651 1287.39 170.917 1288.88 165.693C1290.37 160.469 1303.81 149.269 1308.28 150.021C1312.75 150.773 1312.01 153.754 1316.48 155.245C1320.95 156.736 1326.93 152.263 1329.17 149.269C1331.41 146.288 1333.64 141.803 1338.88 140.312C1344.1 138.821 1347.08 132.845 1348.58 141.051C1350.07 149.257 1345.6 153.742 1348.58 158.214C1351.56 162.699 1350.82 165.681 1356.79 165.681C1362.75 165.681 1364.25 167.172 1366.49 163.439C1368.73 159.705 1361.27 161.196 1366.49 154.481C1371.71 147.766 1367.98 150.009 1374.69 144.033C1381.41 138.057 1383.65 135.076 1378.43 129.1C1373.2 123.136 1367.98 115.67 1367.98 113.428C1367.98 111.185 1368.72 109.694 1362.75 105.222C1356.77 100.749 1356.79 102.979 1352.3 97.016C1347.83 91.0403 1347.08 83.586 1343.35 80.592C1339.61 77.6103 1335.14 70.1439 1342.61 67.1622C1350.07 64.1805 1353.05 63.4289 1356.03 70.1438C1359.01 76.8588 1362.75 80.592 1366.48 82.8345C1370.21 85.0769 1367.22 89.5494 1376.18 94.7735C1385.14 99.9976 1394.83 105.222 1397.08 105.222C1399.32 105.222 1408.27 103.731 1414.98 106.713C1421.7 109.694 1426.92 110.446 1433.65 116.422C1440.36 122.385 1453.78 126.87 1459.76 131.355C1465.73 135.827 1471.69 140.312 1476.18 143.294C1480.66 146.275 1480.66 144.045 1487.37 153.003C1494.09 161.96 1495.58 163.451 1497.82 165.693C1500.06 167.936 1497.82 198.529 1497.82 198.529C1497.82 198.529 1473.21 208.238 1462.76 218.686C1452.32 229.134 1442.61 237.34 1433.66 244.807C1424.7 252.273 1400.08 267.945 1394.12 276.903C1388.15 285.86 1376.21 299.29 1370.24 309.738C1364.26 320.187 1370.24 340.331 1366.5 356.755C1362.77 373.179 1370.97 392.585 1365.01 408.257C1359.04 423.929 1348.59 443.335 1346.35 456.777C1344.11 470.207 1346.35 466.474 1344.86 479.165C1343.37 491.855 1348.59 493.346 1336.66 511.261C1324.72 529.176 1321.73 558.278 1318.75 567.987C1315.77 577.683 1318.75 585.15 1312.78 598.592C1306.8 612.022 1292.62 619.489 1287.4 632.179C1282.18 644.87 1290.38 633.67 1275.47 656.809C1260.54 679.948 1268.75 665.766 1260.54 694.129C1252.32 722.492 1253.82 721.741 1250.83 727.716C1247.85 733.692 1245.61 754.588 1244.12 757.57C1242.63 760.552 1231.43 792.648 1230.69 801.605C1229.94 810.563 1229.94 814.296 1230.69 826.235C1231.44 838.174 1223.23 839.665 1220.99 838.926C1218.75 838.174 1209.05 835.944 1203.08 843.398C1197.1 850.865 1196.36 856.089 1191.14 857.58C1185.92 859.071 1184.43 852.356 1176.21 857.58C1168.01 862.804 1159.79 871.01 1158.3 874.004C1156.81 876.985 1159.79 880.719 1158.3 888.185C1156.81 895.652 1156.06 900.124 1158.3 908.342C1160.55 916.548 1165.02 913.567 1165.02 926.257C1165.02 938.948 1168 944.911 1170.99 948.644C1173.97 952.378 1183.68 959.844 1181.44 961.335C1179.19 962.826 1170.24 965.068 1163.53 965.068C1156.81 965.068 1153.82 960.596 1141.89 953.129C1129.95 945.663 1127.71 944.923 1118.01 943.42C1108.31 941.929 1104.58 943.42 1093.39 940.439C1082.2 937.457 1076.97 937.457 1073.99 935.966C1071.01 934.475 1065.79 933.724 1061.31 929.991C1056.82 926.257 1036.68 911.337 1036.68 911.337C1036.68 911.337 1034.44 904.622 1026.24 902.379C1018.03 900.137 1013.55 898.646 1009.08 894.912C1004.61 891.179 1001.62 889.688 1001.62 885.955C1001.62 882.222 994.152 886.707 1000.86 876.246C1007.58 865.798 1009.82 874.004 1012.06 859.822L1014.3 845.641L1025.5 841.156L1028.48 834.441C1028.48 834.441 1026.99 830.708 1021.02 832.199C1015.04 833.689 1006.84 835.18 999.374 838.914C991.91 842.647 991.91 841.895 980.726 845.628C969.529 849.362 966.549 847.871 964.307 850.853C962.065 853.834 956.103 859.81 956.103 859.81L958.345 870.258C958.345 870.258 959.836 877.725 962.077 877.725C964.319 877.725 968.051 878.476 970.281 877.725C972.522 876.973 978.484 873.252 979.987 875.482C981.477 877.725 986.219 879.216 984.963 881.458C983.706 883.7 977.745 886.682 977.745 886.682C977.745 886.682 971.032 887.434 967.3 888.173C963.568 888.925 961.326 889.664 959.096 891.155C956.855 892.646 956.116 894.888 953.123 896.379C950.142 897.87 943.417 900.112 943.417 900.112C943.417 900.112 938.194 900.864 937.443 896.379C936.691 891.894 936.691 884.44 936.691 884.44L932.22 880.706L924.017 879.216L921.775 873.252L928.488 871.01L937.443 864.295C937.443 864.295 941.914 858.319 937.443 858.319C932.972 858.319 922.514 860.562 919.533 859.071C916.553 857.58 921.024 861.313 916.553 857.58C912.081 853.847 909.088 850.865 909.088 850.865L906.108 844.15C906.108 844.15 894.911 847.883 892.682 849.374C890.44 850.865 891.191 848.622 888.95 854.598C886.708 860.574 884.478 863.556 882.237 866.537C879.995 869.519 874.033 868.78 873.282 873.252C872.531 877.725 871.04 884.452 871.04 887.434C871.04 890.415 871.792 894.888 865.066 895.64C858.353 896.391 853.87 891.906 852.379 899.373C850.889 906.839 851.64 908.33 849.399 912.803C847.157 917.275 850.138 915.784 846.418 924.002C842.686 932.208 841.195 938.184 841.947 941.917C842.698 945.65 849.411 958.341 849.411 958.341L856.888 965.056L868.823 972.523L862.849 976.995C862.849 976.995 849.423 973.262 847.182 973.262C844.94 973.262 835.985 976.995 835.985 976.995L821.808 987.443C821.808 987.443 817.337 978.486 815.095 979.225C812.853 979.977 806.14 977.734 802.408 977.734C798.676 977.734 797.937 977.734 791.963 978.474L786.002 979.225L780.779 991.916L768.092 988.183C768.092 988.183 763.621 984.449 761.379 984.449C759.138 984.449 757.647 991.164 758.398 991.916C759.15 992.655 764.36 999.382 764.36 999.382C764.36 999.382 764.36 1001.62 767.341 1003.12C770.322 1004.61 769.583 1011.32 769.583 1011.32H762.87L764.36 1020.28L769.583 1024.75H780.028L782.269 1034.46C782.269 1034.46 783.008 1039.68 782.269 1042.67C781.518 1045.65 774.805 1042.67 774.805 1042.67C774.805 1042.67 772.563 1039.68 770.334 1039.68C768.104 1039.68 766.602 1044 766.602 1044L772.576 1050.13L767.353 1053.87H762.882L762.131 1060.58C762.131 1060.58 758.398 1059.09 755.418 1060.58C752.437 1062.07 748.705 1053.87 748.705 1053.87L746.463 1060.77H736.757L741.98 1050.13L735.267 1044.91C735.267 1044.91 734.515 1040.44 736.006 1038.19C737.496 1035.95 741.228 1030.73 741.228 1030.73L734.515 1027.75C734.515 1027.75 731.534 1027.75 731.534 1025.5C731.534 1023.26 730.783 1018.04 730.783 1018.04C730.783 1018.04 736.757 1015.05 732.273 1014.3C727.79 1013.55 718.096 1011.32 718.096 1011.32L715.115 1002.36L711.383 989.673C711.383 989.673 704.67 984.449 704.67 982.207C704.67 979.964 706.161 970.268 706.161 967.274C706.161 964.28 709.893 959.056 707.651 956.074C705.409 953.092 709.142 956.074 705.409 953.092C701.677 950.111 691.232 941.153 689.742 938.911C688.251 936.669 689.742 935.178 683.768 932.935C677.794 930.693 677.055 933.687 672.571 928.463C668.088 923.238 665.859 920.245 659.885 918.014C653.911 915.772 644.956 913.542 642.727 910.548C640.485 907.566 637.504 905.324 637.504 900.839C637.504 896.354 636.753 888.9 636.753 888.9C636.753 888.9 632.269 882.185 629.289 880.682C626.308 879.191 619.595 875.458 618.843 878.439C618.092 881.421 617.353 886.645 617.353 886.645C617.353 886.645 609.889 879.179 609.889 876.197C609.889 873.215 611.379 866.5 606.908 867.24C602.425 867.991 590.489 874.706 590.489 874.706C590.489 874.706 587.508 874.706 587.508 883.663C587.508 892.621 590.489 900.827 593.482 905.312C596.463 909.784 603.927 912.026 606.169 913.517C608.411 915.008 612.882 915.76 613.633 919.481C614.385 923.214 610.652 922.462 615.875 929.929C621.098 937.395 634.523 950.825 634.523 950.825C634.523 950.825 639.746 952.316 641.988 953.068C644.229 953.819 648.701 953.819 649.452 956.801C650.203 959.783 661.387 970.243 661.387 970.243C661.387 970.243 670.342 970.982 673.323 973.976C676.304 976.958 690.789 988.109 691.54 990.351C692.279 992.594 691.984 1000.1 691.984 1000.1C691.984 1000.1 679.087 995.28 677.597 992.298C676.107 989.316 670.798 988.565 670.798 988.565L659.897 987.406C659.897 987.406 659.146 996.364 661.387 999.345C663.629 1002.33 668.1 1004.57 668.852 1008.3C669.603 1012.04 668.852 1018 668.852 1018L662.139 1022.48L659.897 1031.44C659.897 1031.44 654.674 1037.42 652.433 1038.16C650.191 1038.9 645.72 1039.65 645.72 1036.67C645.72 1033.68 645.72 1026.22 647.962 1023.98C650.203 1021.73 650.942 1015.77 650.942 1010.55C650.942 1005.32 647.962 997.115 645.72 995.612C643.478 994.121 633.784 988.146 633.784 988.146L627.81 981.431L621.098 979.188L616.626 969.479L606.181 970.231C606.181 970.231 597.966 963.516 593.494 958.28C589.023 953.055 582.298 947.831 582.298 947.831C582.298 947.831 573.343 941.116 572.592 938.874C571.841 936.632 562.886 921.711 562.886 921.711L557.663 912.002C557.663 912.002 554.683 904.535 551.69 904.535C548.696 904.535 528.558 900.802 528.558 900.802C528.558 900.802 527.067 899.311 524.826 904.535C522.584 909.759 518.852 912.741 518.852 912.741L512.139 913.493C512.139 913.493 505.426 912.741 503.184 917.965C500.942 923.189 501.694 924.68 497.961 926.171C495.473 927.165 492.489 927.662 489.007 927.662C483.784 927.662 475.581 920.947 475.581 920.947C475.581 920.947 468.868 917.965 464.385 917.965C459.901 917.965 455.43 917.214 450.959 919.456C446.475 921.698 442.743 921.698 441.253 928.413C439.762 935.128 441.253 944.837 441.253 947.067C441.253 949.298 437.52 959.006 437.52 959.006C437.52 959.006 427.075 964.231 424.834 965.721C422.592 967.212 417.369 972.436 410.656 971.697C403.944 970.958 407.676 979.915 403.192 982.145C398.721 984.388 394.989 993.345 391.996 997.818C389.015 1002.29 386.022 1005.27 386.022 1009.76C386.022 1014.24 385.283 1014.24 386.022 1020.2C386.773 1026.18 380.799 1032.14 380.06 1034.39C379.309 1036.63 378.57 1039.61 376.328 1042.59C374.086 1045.57 362.151 1050.8 362.151 1050.8V1060.68C362.151 1060.68 352.482 1057.87 350.252 1060.68C348.011 1063.49 344.279 1059.36 336.075 1060.68C327.872 1062 324.14 1060.63 317.427 1061.68C310.714 1062.74 309.223 1067.96 304.001 1070.19C298.778 1072.43 295.046 1070.19 292.805 1070.19C290.563 1070.19 283.098 1058.25 283.098 1058.25C283.098 1058.25 274.144 1055.27 269.66 1055.27C265.177 1055.27 259.967 1058.26 254.744 1057.51C249.522 1056.77 245.789 1054.53 245.789 1054.53L251.763 1045.57L245.789 1035.86C245.789 1035.86 242.057 1034.37 240.567 1032.13C239.076 1029.89 240.567 1021.68 240.567 1021.68L239.902 1010.48C239.902 1010.48 242.057 1003.77 243.548 1001.53C245.038 999.284 248.031 991.83 248.031 991.83C248.031 991.83 251.012 985.115 250.273 981.381C249.522 977.648 249.522 967.2 249.522 967.2C249.522 967.2 245.05 964.958 245.05 960.485C245.05 956.013 245.05 954.509 246.541 951.528C248.031 948.546 248.031 944.813 248.031 944.813L239.902 936.595V926.146L253.254 921.662C253.254 921.662 256.234 915.686 258.476 914.946C260.718 914.195 268.182 916.437 268.182 916.437L295.785 917.928C295.785 917.928 302.498 917.177 306.982 917.177C311.465 917.177 333.094 919.419 333.094 919.419C333.094 919.419 351.743 921.662 353.985 921.662H362.188C362.188 921.662 366.671 919.431 367.41 917.189C368.162 914.947 369.652 900.765 369.652 900.765C369.652 900.765 368.901 893.299 369.652 888.074C370.404 882.85 371.894 856.73 371.894 856.73C371.894 856.73 352.494 844.791 353.246 842.548L353.997 840.306L348.774 830.609L341.31 826.137L337.578 820.913H324.891L316.675 816.44L315.936 808.234L310.714 801.519C310.714 801.519 315.936 798.538 320.42 797.786C324.891 797.034 329.375 797.786 332.355 797.034C335.336 796.283 338.329 794.053 340.559 794.792C342.8 795.544 344.291 799.264 346.533 799.264C348.774 799.264 360.71 800.755 362.952 795.531C365.193 790.307 364.442 794.78 365.193 790.307C365.945 785.822 362.952 775.374 362.952 775.374L365.193 771.641L371.155 776.865L379.358 781.337C379.358 781.337 386.822 782.077 389.064 780.586C391.306 779.095 396.529 774.623 398.019 771.629C399.509 768.647 406.974 761.932 406.974 761.932L415.177 756.708C415.177 756.708 415.177 743.278 417.419 741.787C419.66 740.296 423.393 738.054 426.373 736.563C429.354 735.072 439.812 729.848 439.812 729.848C439.812 729.848 454.74 715.666 456.97 714.927C459.211 714.176 464.434 702.988 464.434 702.988L465.924 689.558C465.924 689.558 471.147 688.807 471.147 691.049C471.147 693.291 471.147 699.255 472.637 701.497C474.128 703.74 482.343 692.54 482.343 692.54C482.343 692.54 479.362 688.807 479.362 686.564C479.362 684.322 481.604 679.098 481.604 679.098C481.604 679.098 492.801 675.364 495.042 675.364H506.239C506.239 675.364 506.239 670.879 507.729 668.649C509.219 666.407 517.435 666.407 519.665 667.898C521.906 669.389 529.371 664.165 529.371 664.165L535.344 654.456C535.344 654.456 531.612 649.232 531.612 646.989C531.612 644.747 532.364 637.28 533.103 631.317C533.854 625.341 533.854 620.869 533.854 620.869L524.899 615.644L517.435 607.439L518.926 596.239L520.416 585.051C523.397 583.055 526.632 582.057 530.122 582.057C535.344 582.057 533.103 578.324 530.861 576.833C528.619 575.342 526.39 571.609 526.39 571.609C526.39 571.609 530.122 567.876 534.605 567.876C539.089 567.876 547.292 562.652 547.292 562.652L555.496 553.448C555.496 553.448 561.457 547.965 561.457 553.448C561.457 558.931 559.215 576.082 559.215 576.082C559.215 576.082 558.464 578.324 561.457 582.797C564.438 587.269 560.718 581.306 564.438 587.269C568.17 593.245 562.923 601.451 562.923 601.451L560.681 605.935C560.681 605.935 555.459 611.911 557.7 611.911C559.942 611.911 565.165 617.887 565.165 617.887C565.165 617.887 567.406 622.359 565.916 624.602C564.426 626.844 563.674 628.335 559.954 627.583C556.222 626.832 546.516 621.62 546.516 621.62C546.516 621.62 545.026 626.844 546.516 631.317C548.007 635.789 550.248 639.523 553.229 641.765C556.21 644.007 561.433 644.747 561.433 644.747L569.636 646.238L570.375 652.952C570.375 652.952 565.152 658.916 570.375 658.177C575.597 657.425 583.801 655.195 583.801 655.195L596.488 647.728L603.201 646.238C603.201 646.238 606.933 646.237 607.672 648.48C608.423 650.722 612.143 655.946 612.143 655.946C612.143 655.946 614.385 658.189 616.614 658.928C618.856 659.68 627.81 659.68 627.81 659.68C627.81 659.68 641.236 652.965 643.478 653.704C645.72 654.443 659.146 647.741 659.146 647.741L671.081 641.765C671.081 641.765 677.055 632.808 680.775 636.541C684.507 640.274 690.481 641.765 694.952 644.747C699.423 647.741 704.658 649.971 708.378 649.971C712.098 649.971 715.091 646.989 715.842 642.504L716.594 638.019L723.306 632.044L735.993 634.286C735.993 634.286 741.216 628.31 738.974 623.086C736.732 617.862 735.242 610.396 733.752 605.923C732.261 601.438 731.51 600.699 731.51 594.723C731.51 588.748 726.287 588.748 731.51 581.293C736.732 573.827 728.529 584.275 736.732 573.827C744.936 563.379 747.177 561.136 747.929 556.664C748.68 552.191 751.661 550.195 755.393 553.436C759.125 556.664 760.616 560.397 763.596 564.13C766.577 567.864 764.348 569.354 771.061 570.845C777.774 572.336 785.238 563.379 785.238 563.379C785.238 563.379 785.989 559.904 786.728 553.436C787.48 546.967 788.219 537.258 788.219 537.258C788.219 537.258 787.467 535.016 784.487 533.525C781.506 532.034 776.271 526.058 775.532 523.077C774.793 520.095 774.041 508.144 774.041 508.144C774.041 508.144 783.735 500.677 788.219 499.938C792.69 499.199 802.396 497.695 809.109 496.204C815.822 494.714 818.815 493.962 824.037 493.962H834.482C836.724 493.962 842.686 494.714 842.686 494.714C842.686 494.714 849.399 487.999 851.64 486.508C853.882 485.017 865.066 480.545 865.066 480.545C865.066 480.545 860.903 479.793 869.328 481.284C877.753 482.775 880.734 479.041 880.734 479.041C880.734 479.041 878.492 470.836 875.511 470.836H865.805L859.092 467.102C859.092 467.102 853.87 461.139 851.628 461.139C849.386 461.139 843.412 462.63 836.699 464.121C829.987 465.611 820.281 464.872 816.548 465.611C812.816 466.363 826.993 462.63 806.842 470.084C786.691 477.55 794.156 476.799 786.691 477.55C779.227 478.302 770.272 479.041 767.292 479.041C764.311 479.041 750.134 467.102 750.134 467.102C750.134 467.102 744.172 459.636 741.93 455.903C739.688 452.169 738.949 441.721 738.198 435.006C737.447 428.291 741.93 427.539 739.689 421.576C737.447 415.6 732.976 408.134 732.224 403.661C731.473 399.177 739.688 382.765 741.179 378.28C742.669 373.808 745.65 369.323 749.382 364.85C753.114 360.378 755.356 360.378 756.846 357.384C758.337 354.402 753.866 348.796 761.318 345.999C768.782 343.202 769.521 343.941 773.253 341.711C776.985 339.469 779.227 329.772 780.717 327.53C782.208 325.287 788.182 320.063 790.423 319.324C792.665 318.572 796.397 312.609 794.156 311.118C791.914 309.627 801.62 303.652 801.62 303.652C801.62 303.652 803.862 295.446 803.11 291.713C802.359 287.979 802.359 276.04 798.639 274.549C794.907 273.059 797.149 273.059 788.945 273.059C780.742 273.059 776.259 271.568 772.526 271.568C768.794 271.568 759.101 272.319 759.101 272.319L753.127 279.786C753.127 279.786 750.885 282.028 747.153 283.519C744.665 284.513 742.673 286.751 741.179 290.234C738.937 295.458 737.447 298.44 735.956 300.682C734.466 302.925 732.976 307.397 735.956 310.379C738.937 313.361 732.224 317.094 737.447 318.585C742.669 320.076 741.918 323.057 738.937 326.051C735.956 329.033 729.243 333.518 729.243 333.518C729.243 333.518 730.734 343.584 727.002 346.024C723.269 348.451 727.002 350.693 721.779 351.433C716.557 352.184 712.824 352.184 709.092 354.414C705.36 356.657 700.889 359.638 700.138 363.372C699.386 367.105 692.673 376.814 692.673 376.814C692.673 376.814 682.228 385.771 681.477 388.014C680.726 390.256 681.477 393.238 678.496 396.971C675.515 400.704 670.293 399.953 671.032 405.928C671.783 411.892 673.274 416.377 674.013 419.358C674.764 422.34 674.013 425.334 672.522 427.564C671.032 429.807 670.28 430.558 671.032 438.012C671.783 445.479 671.032 445.479 672.522 451.442C674.013 457.418 671.032 454.424 674.013 457.418C676.993 460.4 686.699 461.151 687.438 463.394C688.19 465.636 697.145 468.618 697.145 472.351C697.145 476.084 705.348 475.333 700.125 485.042C694.903 494.738 692.661 496.241 692.661 498.472C692.661 500.702 691.171 504.447 688.929 505.938C686.687 507.429 684.458 509.671 679.974 514.144C675.503 518.629 673.261 520.12 670.268 523.101C667.287 526.083 662.065 530.568 662.065 532.81C662.065 535.053 667.287 547.238 665.797 553.46C664.307 559.682 660.574 566.397 659.084 571.621C657.594 576.846 657.594 580.579 656.103 583.561C654.613 586.542 655.364 588.785 652.371 591.766C649.39 594.748 644.168 599.233 640.436 599.972C636.704 600.724 627.01 601.463 627.01 601.463C627.01 601.463 627.761 608.178 626.258 610.42C624.768 612.663 620.285 617.135 617.304 617.135C614.323 617.135 613.572 617.135 611.33 616.396C609.088 615.644 602.375 616.396 601.636 612.663C600.885 608.929 598.655 600.724 598.655 600.724L599.407 590.275C599.407 590.275 602.388 588.785 600.897 584.3C599.407 579.815 598.655 579.076 595.675 575.342C592.694 571.609 586.72 561.912 586.72 561.912C586.72 561.912 581.497 550.713 581.497 548.483C581.497 546.252 576.275 532.81 575.523 530.568C574.772 528.325 571.052 533.549 573.282 523.853C575.523 514.156 575.523 511.162 575.523 511.162L570.301 502.956L564.29 496.993L564.376 496.968Z" stroke="url(#paint0_linear_213_410)" stroke-width="3" stroke-linecap="round" stroke-linejoin="round"/>
<path d="M259.252 624.602C257.01 626.844 257.01 629.074 253.278 630.577C249.546 632.068 250.298 626.105 249.546 632.068C248.795 638.044 250.298 637.292 249.546 641.026L248.795 644.759C248.795 644.759 241.54 650.735 239.939 651.474C238.35 652.225 233.127 652.225 230.885 651.474C228.644 650.722 231.625 655.207 230.885 657.45C230.134 659.692 224.912 665.655 224.912 665.655C224.912 665.655 221.179 668.637 219.689 671.631C218.199 674.613 226.402 683.57 226.402 683.57C226.402 683.57 231.625 686.552 231.625 690.285C231.625 694.018 232.376 693.267 230.134 697.752C227.892 702.236 223.421 699.242 222.67 702.976C221.918 706.709 217.078 709.691 219.504 711.933C221.918 714.175 232.376 727.605 234.605 726.866C236.847 726.114 249.522 724.624 251.763 723.884C254.005 723.133 255.495 720.151 262.208 715.679C268.921 711.194 280.857 704.491 280.857 704.491C280.857 704.491 283.838 704.491 287.57 699.267C291.302 694.043 291.302 700.758 291.302 688.819C291.302 676.88 293.544 673.898 291.302 671.656C289.06 669.413 287.57 661.207 287.57 661.207L292.3 650.759C292.3 650.759 298.015 647.026 298.766 644.783C299.517 642.541 297.276 635.087 295.034 633.596C292.792 632.105 284.589 624.639 284.589 624.639C284.589 624.639 286.079 624.639 277.125 624.639C268.17 624.639 268.17 619.415 268.17 619.415L259.215 624.639L259.252 624.602Z" stroke="url(#paint1_linear_213_410)" stroke-width="3" stroke-linecap="round" stroke-linejoin="round"/>
<path d="M318.942 685.049C321.923 689.521 330.877 693.254 326.406 697.739C321.935 702.224 323.425 702.963 318.942 705.945C314.471 708.927 303.274 711.921 307.006 714.902C310.738 717.884 303.755 718.636 316.946 720.878C330.138 723.12 334.609 715.654 338.342 720.878C342.074 726.102 347.296 722.43 345.055 726.878C342.813 731.326 335.348 732.817 331.629 732.817C327.909 732.817 326.406 728.345 321.935 732.817C317.451 737.29 306.267 746.999 306.267 746.999C306.267 746.999 309.987 746.999 306.267 751.483C302.535 755.956 294.32 761.18 306.267 758.95C318.203 756.708 322.822 753.726 322.822 753.726C322.822 753.726 329.399 748.502 333.131 747.011C336.863 745.52 343.158 741.035 345.609 744.029C348.06 747.011 354.773 748.514 354.773 748.514C354.773 748.514 360.747 743.29 364.467 743.29H377.153C383.866 743.29 386.859 744.042 389.84 743.29C392.821 742.538 403.266 738.066 403.266 738.066L407.737 732.842V726.903L404.005 722.295L407.737 714.188C407.737 714.188 411.469 709.703 412.96 707.473C414.45 705.23 417.431 694.782 417.431 694.782C417.431 694.782 415.941 691.788 412.96 690.297C409.979 688.806 410.718 688.055 406.247 688.806C401.776 689.546 398.783 691.049 396.541 691.049C394.299 691.049 389.828 689.558 389.828 689.558L391.318 685.086C391.318 685.086 398.031 680.613 392.809 678.37C387.586 676.128 386.835 668.662 386.835 668.662L389.816 663.437C389.816 663.437 391.306 657.462 389.064 656.723C386.822 655.971 382.351 650.747 382.351 650.747C382.351 650.747 380.11 641.05 377.88 641.05H373.409L368.938 629.111V615.681L365.206 609.705L354.009 605.972L338.342 597.015C338.342 597.015 346.545 588.057 348.787 585.076C351.028 582.094 354.009 569.404 354.009 569.404L358.727 560.446V553.485H346.557C346.557 553.485 339.844 552.487 334.622 553.485L329.399 554.47L321.196 553.029L324.928 540.277L337.615 531.319C337.615 531.319 342.086 529.828 342.086 526.834C342.086 523.84 338.354 521.61 336.112 521.61C333.87 521.61 327.909 520.859 325.667 521.61C323.425 522.362 324.916 516.472 315.222 521.278C305.516 526.083 310.751 520.859 305.516 526.083C300.293 531.307 299.099 533.549 298.951 538.773C298.803 543.998 295.071 544.244 294.332 553.46C293.581 562.664 290.6 557.44 293.581 562.664C296.561 567.888 290.23 573.864 292.275 578.336C294.32 582.809 294.615 583.56 291.856 588.784C289.097 594.009 299.838 596.251 298.939 598.493C298.052 600.736 299.086 601.475 298.939 606.712C298.791 611.936 309.236 605.96 309.236 605.96C309.236 605.96 308.484 611.936 308.484 615.657C308.484 619.378 301.772 625.353 304.752 629.838C307.733 634.311 306.243 635.062 313.707 635.062C321.171 635.062 332.368 630.59 333.858 633.571C335.348 636.553 338.329 635.814 339.82 644.759C341.31 653.716 347.284 654.468 345.042 659.692C342.8 664.916 341.31 664.916 340.559 670.14L339.807 675.364L324.879 678.346C324.879 678.346 316.675 675.364 316.675 678.346C316.675 681.327 318.917 685.061 318.917 685.061L318.942 685.049Z" stroke="url(#paint2_linear_213_410)" stroke-width="3" stroke-linecap="round" stroke-linejoin="round"/>
<path d="M583.702 599.479H576.09C576.09 599.479 573.159 595.968 572.58 599.479C572.001 602.991 569.648 608.264 569.648 608.264L573.75 617.64C573.75 617.64 573.75 619.981 576.681 621.743C579.613 623.505 580.192 625.846 583.714 624.084C587.225 622.322 588.395 620.573 588.395 617.64C588.395 614.708 585.464 613.18 588.395 611.307C591.327 609.434 591.905 608.264 591.327 606.502C590.748 604.74 588.986 601.229 588.986 601.229L583.714 599.479H583.702Z" stroke="url(#paint3_linear_213_410)" stroke-width="3" stroke-linecap="round" stroke-linejoin="round"/>
<path d="M759.901 523.84L747.966 528.313C747.966 528.313 742.743 532.785 747.966 534.289C753.188 535.779 753.94 535.028 759.901 534.289C765.875 533.537 768.856 529.496 768.856 529.496L759.901 523.84Z" stroke="url(#paint4_linear_213_410)" stroke-width="3" stroke-linecap="round" stroke-linejoin="round"/>
<path d="M690.518 546.228C690.518 546.228 683.805 554.433 683.805 556.676C683.805 558.918 680.073 563.391 683.805 567.124L687.537 570.857C687.537 570.857 694.25 569.366 694.25 565.633V553.448L690.518 546.228Z" stroke="url(#paint5_linear_213_410)" stroke-width="3" stroke-linecap="round" stroke-linejoin="round"/>
<path d="M79.0994 264.508L85.4058 255.205L89.7169 259.863C89.7169 259.863 97.0334 260.208 98.3267 259.863C99.62 259.518 102.638 258.483 104.781 259.863C106.936 261.243 110.804 261.932 112.097 259.863C113.391 257.793 119.414 252.63 119.414 252.63L123.725 250.474C123.725 250.474 121.138 243.155 123.725 243.155C126.312 243.155 131.904 243.155 132.335 245.311C132.766 247.468 133.197 250.486 135.352 251.336C137.508 252.199 146.549 249.18 146.549 249.18C146.549 249.18 146.98 254.355 146.549 255.636C146.118 256.93 150.429 264.508 150.429 264.508C150.429 264.508 152.584 268.98 150.429 270.705C148.273 272.43 155.59 276.299 155.59 276.299H165.493C165.493 276.299 163.768 280.18 165.493 284.48C167.217 288.792 171.085 293.524 171.085 293.524C171.085 293.524 172.378 297.405 168.929 299.117C165.481 300.842 165.912 299.549 164.2 304.28C162.475 309.011 163.769 310.305 161.613 312.461C159.457 314.617 157.314 315.048 156.021 316.342C154.728 317.636 153.865 321.505 153.003 322.798C152.141 324.092 148.273 327.111 146.118 328.823C143.962 330.548 139.232 330.979 137.939 330.979C136.646 330.979 134.49 335.28 131.485 336.142C128.467 337.004 123.306 340.454 123.306 341.736C123.306 343.017 118.995 346.467 117.714 346.898C116.421 347.329 109.535 346.898 109.535 346.898C109.535 346.898 101.788 352.923 100.495 353.354C99.2012 353.786 95.3336 357.236 94.0403 358.948C92.747 360.673 86.2927 362.398 86.2927 362.398C86.2927 362.398 61.7566 355.511 60.4633 355.079C59.17 354.648 54.4402 350.779 53.5779 349.486C52.7157 348.192 45.3993 344.742 45.3993 344.742C45.3993 344.742 32.4907 343.448 30.7663 343.448C29.0419 343.448 25.1742 343.017 22.5876 341.723C20.001 340.43 24.7431 338.705 28.6108 336.13C32.4907 333.542 39.8072 328.38 38.945 327.086C38.0828 325.792 32.0596 325.361 31.1974 324.08C30.3352 322.786 33.3529 322.355 29.473 319.767C25.6054 317.18 23.8809 314.174 24.312 312.449C24.7431 310.724 8.38577 309.43 5.36803 308.568C2.3503 307.705 9.66677 301.68 11.8223 302.752C13.9778 303.824 27.7486 301.249 30.3352 300.818C32.9218 300.386 32.4907 294.793 32.4907 294.793C32.4907 294.793 27.7609 294.361 28.6108 293.068C29.473 291.774 34.6339 287.905 34.6339 287.905L23.4375 282.311C23.4375 282.311 15.6899 283.605 10.0979 282.743C4.50582 281.88 1.91919 280.587 1.91919 280.587L4.50582 272.837C4.50582 272.837 3.21251 263.793 4.07472 260.774C4.93693 257.756 14.4089 256.893 14.84 258.187C15.2711 259.481 23.4498 265.937 23.4498 265.937L23.0187 255.168L14.84 245.262C14.84 245.262 21.2943 244.831 23.8809 246.987C26.4676 249.143 35.9273 253.012 38.0828 256.893C40.2383 260.774 41.1005 270.68 41.1005 271.962C41.1005 273.243 50.1414 284.443 50.1414 284.443L54.009 278.418L60.8944 276.262L60.4633 259.468C60.4633 259.468 66.4865 264.631 68.2109 266.787C69.9353 268.943 77.6829 270.225 77.6829 270.225L79.124 264.458L79.0994 264.508Z" stroke="url(#paint6_linear_213_410)" stroke-width="3" stroke-linecap="round" stroke-linejoin="round"/>
<defs>
<linearGradient id="paint0_linear_213_410" x1="869.358" y1="35.8052" x2="869.358" y2="1071.19" gradientUnits="userSpaceOnUse">
<stop stop-color="#687982" stop-opacity="0"/>
<stop offset="0.28125" stop-color="#687982"/>
</linearGradient>
<linearGradient id="paint1_linear_213_410" x1="258.872" y1="619.415" x2="258.872" y2="726.895" gradientUnits="userSpaceOnUse">
<stop stop-color="#687982" stop-opacity="0"/>
<stop offset="0.28125" stop-color="#687982"/>
</linearGradient>
<linearGradient id="paint2_linear_213_410" x1="354.416" y1="519.372" x2="354.416" y2="759.482" gradientUnits="userSpaceOnUse">
<stop stop-color="#687982" stop-opacity="0"/>
<stop offset="0.28125" stop-color="#687982"/>
</linearGradient>
<linearGradient id="paint3_linear_213_410" x1="580.588" y1="597.918" x2="580.588" y2="624.71" gradientUnits="userSpaceOnUse">
<stop stop-color="#687982" stop-opacity="0"/>
<stop offset="0.28125" stop-color="#687982"/>
</linearGradient>
<linearGradient id="paint4_linear_213_410" x1="757.25" y1="523.84" x2="757.25" y2="535.147" gradientUnits="userSpaceOnUse">
<stop stop-color="#687982" stop-opacity="0"/>
<stop offset="0.28125" stop-color="#687982"/>
</linearGradient>
<linearGradient id="paint5_linear_213_410" x1="688.198" y1="546.228" x2="688.198" y2="570.857" gradientUnits="userSpaceOnUse">
<stop stop-color="#687982" stop-opacity="0"/>
<stop offset="0.28125" stop-color="#687982"/>
</linearGradient>
<linearGradient id="paint6_linear_213_410" x1="86.6209" y1="243.155" x2="86.6209" y2="362.398" gradientUnits="userSpaceOnUse">
<stop stop-color="#687982" stop-opacity="0"/>
<stop offset="0.28125" stop-color="#687982"/>
</linearGradient>
</defs>
</svg>
