<?xml version="1.0" encoding="UTF-8"?>
<svg id="Calque_2" data-name="Calque 2" xmlns="http://www.w3.org/2000/svg" viewBox="0 0 6.7 12.62">
  <defs>
    <style>
      .cls-1 {
        fill: #46b2bb;
        stroke-width: 0px;
      }
    </style>
  </defs>
  <g id="Calque_1-2" data-name="Calque 1">
    <path class="cls-1" d="m1.81,12.62c-.33-3.92-.42-7.86-.46-11.79v-.21c.2-.17.41-.33.65-.43,1.73-.72,2.89.75,3.54,2.15.99,1.89,1.22,4.06,1.14,6.16-.04,1.18-.12,2.35-.25,3.53-.09-1.18-.14-2.35-.23-3.52-.12-2.02-.44-4-1.44-5.77-.5-.96-1.36-2.32-2.56-1.64-.04.02-.08.05-.12.08,0,0,.16-.35.16-.35-.03,3.93-.12,7.87-.46,11.79h0Z"/>
    <path class="cls-1" d="m0,3.83c1.48,1.03,2.78,2.89,3.24,4.64C1.75,7.43.46,5.58,0,3.83h0Z"/>
  </g>
</svg>