<svg width="313" height="78" viewBox="0 0 313 78" fill="none" xmlns="http://www.w3.org/2000/svg">
<g clip-path="url(#clip0_131_163)">
<path d="M11.4254 77.9998C9.89412 59.9424 9.29905 41.3647 8.8944 23.2297C8.77539 16.7291 8.70398 10.2206 8.66431 3.71223C8.93407 3.487 9.82271 2.76471 10.0766 2.58608C16.0035 -1.67002 23.5649 -0.481731 28.4366 4.60539C30.6185 6.79558 32.2054 9.26536 33.6494 11.8827C38.8146 20.892 41.6313 31.1439 42.1153 41.4269C42.631 52.4321 41.8059 63.383 40.7189 74.3107C40.1635 67.0333 39.9016 59.7483 39.3621 52.5253C38.6559 41.9006 37.2912 31.1672 32.6973 21.4512C29.2697 14.368 22.8746 0.652193 13.2027 7.03634L14.1786 4.97819C14.1469 11.0672 14.0676 17.1485 13.9565 23.2375C13.5518 41.3725 12.9568 59.9424 11.4254 78.0076V77.9998Z" fill="white"/>
<path d="M0 23.5483C8.99749 29.7694 17.6459 41.8465 20.4864 52.2692C11.473 46.0715 2.86428 33.9634 0 23.5483Z" fill="white"/>
<path d="M59.4358 42.0327L53.9929 47.3606L48.5499 42.0327L53.9929 36.7048L59.4358 42.0327ZM59.4358 70.8468L53.9929 76.1747L48.5499 70.8468L53.9929 65.5189L59.4358 70.8468Z" fill="white"/>
<path d="M85.4841 76.1748H77.9068V26.321C75.828 23.0046 73.1462 19.8591 69.8773 16.8923V76.1748H62.3V2.22119C62.7126 2.51632 63.7679 3.22308 65.4658 4.35701C67.1638 5.49093 68.338 6.30643 68.9887 6.80349C69.6393 7.30055 70.6073 8.02284 71.8847 8.9859C73.1621 9.94896 74.265 10.8499 75.1853 11.6887C76.1057 12.5352 77.0102 13.4206 77.9068 14.3526V3.44831H85.4841V76.1748Z" fill="white"/>
<path d="M120.181 31.2993C120.181 39.6794 119.007 47.4538 116.658 54.6069C114.309 61.7677 110.668 68.9518 105.732 76.1747H102.789C97.8537 68.9595 94.2118 61.7677 91.8633 54.6069C89.5147 47.446 88.3405 39.6794 88.3405 31.2993C88.3405 22.2201 90.0622 12.939 93.5136 3.44824H115.008C118.459 12.939 120.181 22.2201 120.181 31.2993ZM112.691 31.2993C112.691 24.4336 111.651 17.6223 109.573 10.8731H98.9565C96.8778 17.6223 95.8384 24.4336 95.8384 31.2993C95.8384 42.8249 98.663 53.8535 104.312 64.385C109.898 53.97 112.699 42.9414 112.699 31.2993H112.691Z" fill="white"/>
<path d="M148.268 5.0171C146.546 9.32756 144.793 12.8769 143.008 15.6651C141.223 18.4611 138.723 21.1949 135.518 23.8744C143.904 33.5982 148.094 45.3491 148.094 59.1426C148.094 65.1927 147.229 70.8701 145.507 76.1669H138.818L138.104 74.769C139.707 69.7051 140.516 64.4704 140.516 59.0571C140.516 48.1761 137.216 38.3358 130.614 29.544V76.1669H123.037V3.44824H147.562L148.276 5.0171H148.268ZM137.208 10.8653H130.606V18.2825C133.106 16.1311 135.304 13.6536 137.208 10.8653Z" fill="white"/>
<path d="M176.364 5.0171C174.642 9.32756 172.888 12.8769 171.103 15.6651C169.318 18.4611 166.819 21.1949 163.613 23.8744C172 33.5982 176.189 45.3491 176.189 59.1426C176.189 65.1927 175.324 70.8701 173.602 76.1669H166.914L166.2 74.769C167.802 69.7051 168.612 64.4704 168.612 59.0571C168.612 48.1761 165.311 38.3358 158.71 29.544V76.1669H151.132V3.44824H175.657L176.371 5.0171H176.364ZM165.303 10.8653H158.702V18.2825C161.201 16.1311 163.399 13.6536 165.303 10.8653Z" fill="white"/>
<path d="M204.99 23.8744C204.99 43.6637 199.405 61.0997 188.225 76.1669H179.22V3.44824H186.797V64.7345C193.874 52.3934 197.413 38.7785 197.413 23.8744C197.413 17.0087 196.612 10.1974 195.001 3.44824H202.674C204.221 10.3139 204.99 17.1252 204.99 23.8744Z" fill="white"/>
<path d="M215.337 76.1747H207.847V3.44824H215.337V76.1747Z" fill="white"/>
<path d="M241.647 36.2699C241.647 51.7565 236.799 65.0529 227.111 76.1669H218.907L218.193 74.7689C228.833 64.4083 234.157 51.5778 234.157 36.2699C234.157 33.3574 233.919 30.274 233.443 27.0121H219.709V23.3462C219.709 18.0494 221.597 13.436 225.374 9.50615C229.15 5.57625 233.744 3.55693 239.156 3.44043V10.8653C236.601 10.8653 234.252 11.7119 232.11 13.3972C229.968 15.0826 228.571 17.1796 227.921 19.6804H239.608C240.972 26.0801 241.655 31.6099 241.655 36.2699H241.647Z" fill="white"/>
<path d="M268.766 59.8415C268.766 65.4257 267.965 70.8701 266.354 76.1669H259.666L258.952 74.769C260.499 69.8838 261.268 64.9054 261.268 59.8415C261.268 49.1314 258.174 39.6717 251.993 31.4701V76.1669H244.503V3.44824H251.993V17.2417C255.326 13.3973 257.793 8.79943 259.396 3.44824H267.156C265.251 11.3624 261.451 18.2592 255.738 24.1385C259.959 29.0237 263.188 34.569 265.418 40.7668C267.647 46.9645 268.758 53.3254 268.758 59.8415H268.766Z" fill="white"/>
<path d="M299.266 76.1747H291.776V41.6832H283.746C282.675 47.446 282.143 53.2943 282.143 59.228C282.143 65.1617 282.619 70.7536 283.572 76.1669H275.994C275.106 70.5828 274.653 64.9364 274.653 59.228C274.653 53.1157 275.13 47.2674 276.082 41.6832H271.623V34.2661H277.597C280.033 23.6181 284.405 13.3429 290.705 3.44824H299.266V76.1747ZM291.776 34.2661V16.8068C289.276 22.1036 287.142 27.9208 285.357 34.2661H291.776Z" fill="white"/>
<path d="M313 42.0327L307.557 47.3606L302.114 42.0327L307.557 36.7048L313 42.0327ZM313 70.8468L307.557 76.1747L302.114 70.8468L307.557 65.5189L313 70.8468Z" fill="white"/>
</g>
<defs>
<clipPath id="clip0_131_163">
<rect width="313" height="78" fill="white"/>
</clipPath>
</defs>
</svg>
