<svg width="1168" height="42" viewBox="0 0 1168 42" fill="none" xmlns="http://www.w3.org/2000/svg">
<path d="M1166.77 22.7679C1167.74 21.7916 1167.74 20.2086 1166.77 19.2323L1150.86 3.32243C1149.88 2.34612 1148.3 2.34612 1147.32 3.32243C1146.35 4.29874 1146.35 5.88165 1147.32 6.85796L1161.46 21.0001L1147.32 35.1422C1146.35 36.1185 1146.35 37.7015 1147.32 38.6778C1148.3 39.6541 1149.88 39.6541 1150.86 38.6778L1166.77 22.7679ZM-2.18557e-07 23.5L1165 23.5001L1165 18.5001L2.18557e-07 18.5L-2.18557e-07 23.5Z" fill="#46B2BB"/>
<line x1="122.5" y1="1.09279e-07" x2="122.5" y2="21" stroke="#46B2BB" stroke-width="5"/>
<line x1="584.5" y1="1.09279e-07" x2="584.5" y2="21" stroke="#46B2BB" stroke-width="5"/>
<line x1="1037.5" y1="1.09279e-07" x2="1037.5" y2="21" stroke="#46B2BB" stroke-width="5"/>
<line x1="344.5" y1="21" x2="344.5" y2="42" stroke="#46B2BB" stroke-width="5"/>
<line x1="810.5" y1="21" x2="810.5" y2="42" stroke="#46B2BB" stroke-width="5"/>
</svg>
