<svg width="402" height="246" viewBox="0 0 402 246" fill="none" xmlns="http://www.w3.org/2000/svg">
<path d="M0.769912 158.524C0.295975 159.204 0.462613 160.139 1.14208 160.613L12.2147 168.336C12.8941 168.81 13.8292 168.643 14.3031 167.964C14.777 167.284 14.6104 166.349 13.9309 165.875L4.08863 159.01L10.9537 149.168C11.4276 148.488 11.261 147.553 10.5815 147.079C9.90205 146.605 8.96703 146.772 8.4931 147.452L0.769912 158.524ZM317.724 0.518576C269.851 47.184 229.202 79.6707 181.39 103.919C133.572 128.171 78.5032 144.226 1.73706 157.906L2.26336 160.859C79.1732 147.154 134.562 131.032 182.747 106.595C230.938 82.1538 271.836 49.4383 319.818 2.66683L317.724 0.518576Z" fill="#46B2BB"/>
<path d="M350.286 244.084C350.662 244.822 351.565 245.116 352.303 244.739L364.332 238.61C365.07 238.234 365.363 237.33 364.987 236.592C364.611 235.854 363.708 235.561 362.97 235.937L352.278 241.385L346.829 230.694C346.453 229.956 345.55 229.662 344.812 230.038C344.074 230.414 343.78 231.318 344.156 232.056L350.286 244.084ZM389.606 11.4189C388.828 94.4422 382.335 144.005 350.196 242.94L353.049 243.866C385.283 144.642 391.825 94.7762 392.605 11.447L389.606 11.4189Z" fill="#46B2BB"/>
</svg>
