<svg width="549" height="534" viewBox="0 0 549 534" fill="none" xmlns="http://www.w3.org/2000/svg">
<path d="M548.062 523.061C548.648 522.475 548.648 521.525 548.062 520.939L538.516 511.393C537.93 510.808 536.981 510.808 536.395 511.393C535.809 511.979 535.809 512.929 536.395 513.515L544.88 522L536.395 530.485C535.809 531.071 535.809 532.021 536.395 532.607C536.981 533.192 537.93 533.192 538.516 532.607L548.062 523.061ZM0.510193 112.175C19.5641 274.629 96.4481 377.539 198.533 439.781C300.545 501.979 427.604 523.5 547.001 523.5L547.001 520.5C427.899 520.5 301.458 499.021 200.095 437.219C98.8039 375.461 22.4372 273.371 3.48981 111.825L0.510193 112.175Z" fill="#46B2BB"/>
<path d="M2.00073 42L2.00073 89" stroke="#46B2BB" stroke-width="3"/>
<path d="M2.00073 0L2.00073 26" stroke="#46B2BB" stroke-width="3"/>
</svg>
