<svg width="250" height="297" viewBox="0 0 250 297" fill="none" xmlns="http://www.w3.org/2000/svg">
<path d="M4 45.0507V2M14.7677 2L4 12.7627M25.5354 2L4 23.5253" stroke="black" stroke-width="3" stroke-linecap="round" stroke-linejoin="round"/>
<path d="M58 45.0507V2L68.7677 12.7627V45.0507" stroke="black" stroke-width="3" stroke-linecap="round" stroke-linejoin="round"/>
<path d="M100 2V45.0507M100 12.7627L110.768 23.5253L100 34.288" stroke="black" stroke-width="3" stroke-linecap="round" stroke-linejoin="round"/>
<path d="M148 45.0507V2L158.768 12.7627M158.768 23.5253L148 12.7627" stroke="black" stroke-width="3" stroke-linecap="round" stroke-linejoin="round"/>
<path d="M185 45.0507V2L195.768 12.7627L185 23.5253L195.768 45.0507" stroke="black" stroke-width="3" stroke-linecap="round" stroke-linejoin="round"/>
<path d="M228 45.0507V2M244.152 2.29896L228 18.443" stroke="black" stroke-width="3" stroke-linecap="round" stroke-linejoin="round"/>
<path d="M10.4688 63.8906H6.10938V79H3.51562V63.8906H0.453125V62.7188L3.51562 61.7812V60.8281C3.51562 56.6198 5.35417 54.5156 9.03125 54.5156C9.9375 54.5156 11 54.6979 12.2188 55.0625L11.5469 57.1406C10.5469 56.8177 9.69271 56.6562 8.98438 56.6562C8.00521 56.6562 7.28125 56.9844 6.8125 57.6406C6.34375 58.2865 6.10938 59.3281 6.10938 60.7656V61.875H10.4688V63.8906Z" fill="black"/>
<path d="M50.7827 61.1357V72.2451C50.7827 73.641 51.1004 74.6826 51.7358 75.3701C52.3713 76.0576 53.366 76.4014 54.7202 76.4014C56.5119 76.4014 57.8192 75.9118 58.6421 74.9326C59.4754 73.9535 59.8921 72.3545 59.8921 70.1357V61.1357H62.4858V78.2607H60.3452L59.9702 75.9639H59.8296C59.2983 76.8076 58.5588 77.4535 57.6108 77.9014C56.6733 78.3493 55.6004 78.5732 54.3921 78.5732C52.3088 78.5732 50.7463 78.0785 49.7046 77.0889C48.6733 76.0993 48.1577 74.516 48.1577 72.3389V61.1357H50.7827Z" fill="black"/>
<path d="M99.3054 63.4482C99.9929 62.5212 100.779 61.8545 101.665 61.4482C102.55 61.0316 103.545 60.8232 104.649 60.8232C106.889 60.8232 108.634 61.6045 109.884 63.167C111.134 64.7295 111.759 66.9014 111.759 69.6826C111.759 72.4743 111.128 74.6566 109.868 76.2295C108.618 77.792 106.878 78.5732 104.649 78.5732C102.337 78.5732 100.545 77.7347 99.2742 76.0576H99.0867L99.1492 76.5889C99.2325 77.391 99.2742 78.1201 99.2742 78.7764V85.9482H96.6804V53.9482H99.2742V61.2295C99.2742 61.7712 99.2429 62.5107 99.1804 63.4482H99.3054ZM104.305 63.0264C102.555 63.0264 101.285 63.5055 100.493 64.4639C99.7013 65.4222 99.295 66.9482 99.2742 69.042V69.6826C99.2742 72.0889 99.6752 73.8128 100.477 74.8545C101.279 75.8857 102.566 76.4014 104.337 76.4014C107.493 76.4014 109.071 74.1514 109.071 69.6514C109.071 67.4118 108.686 65.7503 107.915 64.667C107.144 63.5732 105.941 63.0264 104.305 63.0264Z" fill="black"/>
<path d="M154.547 79.2607L154.031 76.8232H153.906C153.052 77.8962 152.198 78.6253 151.344 79.0107C150.5 79.3857 149.443 79.5732 148.172 79.5732C146.474 79.5732 145.141 79.1357 144.172 78.2607C143.214 77.3857 142.734 76.141 142.734 74.5264C142.734 71.068 145.5 69.2555 151.031 69.0889L153.938 68.9951V67.9326C153.938 66.5889 153.646 65.5993 153.062 64.9639C152.49 64.318 151.568 63.9951 150.297 63.9951C148.87 63.9951 147.255 64.4326 145.453 65.3076L144.656 63.3232C145.5 62.8649 146.422 62.5055 147.422 62.2451C148.432 61.9847 149.443 61.8545 150.453 61.8545C152.495 61.8545 154.005 62.3076 154.984 63.2139C155.974 64.1201 156.469 65.5732 156.469 67.5732V79.2607H154.547ZM148.688 77.4326C150.302 77.4326 151.568 76.9899 152.484 76.1045C153.411 75.2191 153.875 73.9795 153.875 72.3857V70.8389L151.281 70.9482C149.219 71.0212 147.729 71.3441 146.812 71.917C145.906 72.4795 145.453 73.3597 145.453 74.5576C145.453 75.4951 145.734 76.2087 146.297 76.6982C146.87 77.1878 147.667 77.4326 148.688 77.4326ZM154.281 82.9795C154.281 83.9587 154.771 84.4482 155.75 84.4482C156.188 84.4482 156.693 84.3805 157.266 84.2451V85.9482C156.589 86.1357 155.938 86.2295 155.312 86.2295C153.156 86.2295 152.078 85.2503 152.078 83.292C152.078 82.5628 152.302 81.8441 152.75 81.1357C153.198 80.4378 153.797 79.8128 154.547 79.2607H156.422C155.714 79.9482 155.177 80.5732 154.812 81.1357C154.458 81.7087 154.281 82.3232 154.281 82.9795Z" fill="black"/>
<path d="M198.549 60.8232C199.31 60.8232 199.992 60.8857 200.596 61.0107L200.237 63.417C199.528 63.2607 198.903 63.1826 198.362 63.1826C196.976 63.1826 195.789 63.7451 194.799 64.8701C193.82 65.9951 193.331 67.3962 193.331 69.0732V78.2607H190.737V61.1357H192.877L193.174 64.3076H193.299C193.935 63.193 194.7 62.3337 195.596 61.7295C196.492 61.1253 197.476 60.8232 198.549 60.8232Z" fill="black"/>
<path d="M238.178 69.4951C238.626 68.8597 239.309 68.0264 240.225 66.9951L245.756 61.1357H248.835L241.897 68.4326L249.319 78.2607H246.178L240.131 70.167L238.178 71.8545V78.2607H235.616V53.9482H238.178V66.8389C238.178 67.4118 238.137 68.2972 238.053 69.4951H238.178Z" fill="black"/>
<path d="M25.6803 254.766V211.715L14.9126 222.478" stroke="black" stroke-width="3" stroke-linecap="round" stroke-linejoin="round"/>
<path d="M164.611 254.766V211.715L175.379 222.478" stroke="black" stroke-width="3" stroke-linecap="round" stroke-linejoin="round"/>
<path d="M217.287 254.765V233.3" stroke="black" stroke-width="3" stroke-linecap="round" stroke-linejoin="round"/>
<path d="M68.7295 211.773V254.824M74.1134 233.299L68.7295 238.68M74.1134 222.536L68.7295 227.917" stroke="black" stroke-width="3" stroke-linecap="round" stroke-linejoin="round"/>
<path d="M122.06 254.766V211.715M116.707 217.156H127.474" stroke="black" stroke-width="3" stroke-linecap="round" stroke-linejoin="round"/>
<path d="M212.754 286.48V295.98H210.098V273.137H216.363C219.165 273.137 221.233 273.673 222.566 274.746C223.91 275.819 224.582 277.434 224.582 279.59C224.582 282.611 223.051 284.652 219.988 285.715L226.191 295.98H223.051L217.519 286.48H212.754ZM212.754 284.199H216.394C218.269 284.199 219.644 283.829 220.519 283.09C221.394 282.34 221.832 281.22 221.832 279.73C221.832 278.22 221.384 277.132 220.488 276.465C219.603 275.798 218.176 275.465 216.207 275.465H212.754V284.199Z" fill="black"/>
<path d="M137.881 295.98V284.84C137.881 283.475 137.59 282.454 137.006 281.777C136.423 281.09 135.517 280.746 134.287 280.746C132.673 280.746 131.48 281.21 130.709 282.137C129.939 283.064 129.553 284.491 129.553 286.418V295.98H126.959V284.84C126.959 283.475 126.668 282.454 126.084 281.777C125.501 281.09 124.59 280.746 123.35 280.746C121.725 280.746 120.532 281.236 119.772 282.215C119.022 283.184 118.647 284.777 118.647 286.996V295.98H116.053V278.855H118.162L118.584 281.199H118.709C119.199 280.366 119.886 279.715 120.772 279.246C121.668 278.777 122.668 278.543 123.772 278.543C126.449 278.543 128.199 279.512 129.022 281.449H129.147C129.657 280.553 130.397 279.845 131.366 279.324C132.334 278.803 133.439 278.543 134.678 278.543C136.616 278.543 138.064 279.043 139.022 280.043C139.991 281.033 140.475 282.621 140.475 284.809V295.98H137.881Z" fill="black"/>
<path d="M76.3881 278.574C78.6381 278.574 80.3829 279.345 81.6224 280.887C82.8724 282.418 83.4974 284.59 83.4974 287.402C83.4974 290.215 82.8672 292.402 81.6068 293.965C80.3568 295.517 78.6172 296.293 76.3881 296.293C75.2735 296.293 74.2526 296.09 73.3256 295.684C72.4089 295.267 71.6381 294.632 71.0131 293.777H70.8256L70.2787 295.98H68.4193V271.668H71.0131V277.574C71.0131 278.897 70.9714 280.085 70.8881 281.137H71.0131C72.2214 279.428 74.0131 278.574 76.3881 278.574ZM76.0131 280.746C74.2422 280.746 72.9662 281.257 72.1849 282.277C71.4037 283.288 71.0131 284.996 71.0131 287.402C71.0131 289.809 71.4141 291.533 72.2162 292.574C73.0183 293.605 74.3047 294.121 76.0756 294.121C77.6693 294.121 78.8568 293.543 79.6381 292.387C80.4193 291.22 80.8099 289.548 80.8099 287.371C80.8099 285.142 80.4193 283.48 79.6381 282.387C78.8568 281.293 77.6485 280.746 76.0131 280.746Z" fill="black"/>
<path d="M31.2294 294.152C31.6877 294.152 32.1304 294.121 32.5575 294.059C32.9846 293.986 33.3231 293.913 33.5731 293.84V295.824C33.2919 295.96 32.8752 296.069 32.3231 296.152C31.7815 296.246 31.2919 296.293 30.8544 296.293C27.5419 296.293 25.8856 294.548 25.8856 291.059V280.871H23.4325V279.621L25.8856 278.543L26.9794 274.887H28.4794V278.855H33.4481V280.871H28.4794V290.949C28.4794 291.98 28.7242 292.772 29.2137 293.324C29.7033 293.876 30.3752 294.152 31.2294 294.152Z" fill="black"/>
<path d="M171.422 295.98H168.828V271.668H171.422V295.98Z" fill="black"/>
<path d="M120.812 146.41V103.359" stroke="black" stroke-width="3" stroke-linecap="round" stroke-linejoin="round"/>
<path d="M83.818 103.658V146.709M83.5487 124.944L88.9026 130.266" stroke="black" stroke-width="3" stroke-linecap="round" stroke-linejoin="round"/>
<path d="M158.262 146.41V103.359M158.292 125.184L152.878 130.505" stroke="black" stroke-width="3" stroke-linecap="round" stroke-linejoin="round"/>
<path d="M40.8408 103.359V146.41M35.4868 124.944H46.2545" stroke="black" stroke-width="3" stroke-linecap="round" stroke-linejoin="round"/>
<path d="M205.727 103.418V124.943" stroke="black" stroke-width="3" stroke-linecap="round" stroke-linejoin="round"/>
<path d="M49.5056 186.623V175.545C49.5056 174.149 49.1879 173.107 48.5525 172.42C47.9171 171.732 46.9223 171.389 45.5681 171.389C43.766 171.389 42.4483 171.878 41.615 172.857C40.7921 173.837 40.3806 175.441 40.3806 177.67V186.623H37.7869V162.311H40.3806V169.67C40.3806 170.555 40.3389 171.29 40.2556 171.873H40.4119C40.9223 171.05 41.6462 170.404 42.5837 169.936C43.5317 169.456 44.6098 169.217 45.8181 169.217C47.9119 169.217 49.4796 169.717 50.5212 170.717C51.5733 171.706 52.0994 173.285 52.0994 175.451V186.623H49.5056Z" fill="black"/>
<path d="M214.816 181.951C214.816 183.545 214.222 184.774 213.035 185.639C211.847 186.503 210.181 186.936 208.035 186.936C205.764 186.936 203.993 186.576 202.722 185.857V183.451C203.545 183.868 204.425 184.196 205.363 184.436C206.311 184.675 207.222 184.795 208.097 184.795C209.451 184.795 210.493 184.581 211.222 184.154C211.951 183.717 212.316 183.055 212.316 182.17C212.316 181.503 212.024 180.936 211.441 180.467C210.868 179.988 209.743 179.425 208.066 178.779C206.472 178.186 205.337 177.67 204.66 177.232C203.993 176.785 203.493 176.279 203.16 175.717C202.837 175.154 202.675 174.482 202.675 173.701C202.675 172.305 203.243 171.206 204.379 170.404C205.514 169.592 207.071 169.186 209.05 169.186C210.894 169.186 212.696 169.561 214.457 170.311L213.535 172.42C211.816 171.712 210.259 171.357 208.863 171.357C207.634 171.357 206.707 171.55 206.082 171.936C205.457 172.321 205.144 172.852 205.144 173.529C205.144 173.988 205.259 174.378 205.488 174.701C205.727 175.024 206.108 175.331 206.629 175.623C207.149 175.915 208.149 176.337 209.629 176.889C211.66 177.628 213.03 178.373 213.738 179.123C214.457 179.873 214.816 180.816 214.816 181.951Z" fill="black"/>
<path d="M126.796 186.623H124.202V169.498H126.796V186.623ZM123.984 164.857C123.984 164.264 124.129 163.831 124.421 163.561C124.713 163.279 125.077 163.139 125.515 163.139C125.932 163.139 126.291 163.279 126.593 163.561C126.895 163.842 127.046 164.274 127.046 164.857C127.046 165.441 126.895 165.878 126.593 166.17C126.291 166.451 125.932 166.592 125.515 166.592C125.077 166.592 124.713 166.451 124.421 166.17C124.129 165.878 123.984 165.441 123.984 164.857Z" fill="black"/>
<path d="M171.646 186.623L171.131 184.186H171.006C170.152 185.258 169.297 185.988 168.443 186.373C167.599 186.748 166.542 186.936 165.271 186.936C163.573 186.936 162.24 186.498 161.271 185.623C160.313 184.748 159.834 183.503 159.834 181.889C159.834 178.43 162.599 176.618 168.131 176.451L171.037 176.357V175.295C171.037 173.951 170.745 172.962 170.162 172.326C169.589 171.68 168.667 171.357 167.396 171.357C165.969 171.357 164.355 171.795 162.553 172.67L161.756 170.686C162.599 170.227 163.521 169.868 164.521 169.607C165.532 169.347 166.542 169.217 167.553 169.217C169.594 169.217 171.105 169.67 172.084 170.576C173.073 171.482 173.568 172.936 173.568 174.936V186.623H171.646ZM165.787 184.795C167.402 184.795 168.667 184.352 169.584 183.467C170.511 182.581 170.974 181.342 170.974 179.748V178.201L168.381 178.311C166.318 178.383 164.829 178.706 163.912 179.279C163.006 179.842 162.553 180.722 162.553 181.92C162.553 182.857 162.834 183.571 163.396 184.061C163.969 184.55 164.766 184.795 165.787 184.795Z" fill="black"/>
<path d="M92.2135 186.623V175.545C92.2135 174.149 91.8958 173.107 91.2604 172.42C90.625 171.732 89.6302 171.389 88.276 171.389C86.4843 171.389 85.1718 171.873 84.3385 172.842C83.5052 173.811 83.0885 175.41 83.0885 177.639V186.623H80.4948V169.498H82.6041L83.026 171.842H83.151C83.6823 170.998 84.427 170.347 85.3854 169.889C86.3437 169.42 87.4114 169.186 88.5885 169.186C90.651 169.186 92.2031 169.686 93.2448 170.686C94.2864 171.675 94.8073 173.264 94.8073 175.451V186.623H92.2135Z" fill="black"/>
</svg>
