<svg width="249" height="296" viewBox="0 0 249 296" fill="none" xmlns="http://www.w3.org/2000/svg">
<path d="M57.5857 45.1245V2L68.3723 12.7811V45.1245" stroke="black" stroke-width="3" stroke-linecap="round" stroke-linejoin="round"/>
<path d="M100.197 2V45.1245M100.197 12.7811L110.984 23.5623L100.197 34.3434" stroke="black" stroke-width="3" stroke-linecap="round" stroke-linejoin="round"/>
<path d="M185.42 45.1245V2L196.207 12.7811L185.42 23.5623L196.207 45.1245" stroke="black" stroke-width="3" stroke-linecap="round" stroke-linejoin="round"/>
<path d="M228.032 45.1245V2M244.212 2L228.032 18.1717" stroke="black" stroke-width="3" stroke-linecap="round" stroke-linejoin="round"/>
<path d="M148.202 45.1245V2M153.595 34.3434L142.809 23.5623M142.809 12.7811L153.595 23.5623" stroke="black" stroke-width="3" stroke-linecap="round" stroke-linejoin="round"/>
<path d="M14.9741 2L4.1875 12.7811M25.7606 2L4.1875 23.5623M4.1875 45.1245V2" stroke="black" stroke-width="3" stroke-linecap="round" stroke-linejoin="round"/>
<path d="M10.4688 63.6025H6.10938V78.7119H3.51562V63.6025H0.453125V62.4307L3.51562 61.4932V60.54C3.51562 56.3317 5.35417 54.2275 9.03125 54.2275C9.9375 54.2275 11 54.4098 12.2188 54.7744L11.5469 56.8525C10.5469 56.5296 9.69271 56.3682 8.98438 56.3682C8.00521 56.3682 7.28125 56.6963 6.8125 57.3525C6.34375 57.9984 6.10938 59.04 6.10938 60.4775V61.5869H10.4688V63.6025Z" fill="black"/>
<path d="M51.3164 61.5869V72.6963C51.3164 74.0921 51.6341 75.1338 52.2695 75.8213C52.9049 76.5088 53.8997 76.8525 55.2539 76.8525C57.0456 76.8525 58.3529 76.363 59.1758 75.3838C60.0091 74.4046 60.4258 72.8057 60.4258 70.5869V61.5869H63.0195V78.7119H60.8789L60.5039 76.415H60.3633C59.832 77.2588 59.0924 77.9046 58.1445 78.3525C57.207 78.8005 56.1341 79.0244 54.9258 79.0244C52.8424 79.0244 51.2799 78.5296 50.2383 77.54C49.207 76.5505 48.6914 74.9671 48.6914 72.79V61.5869H51.3164Z" fill="black"/>
<path d="M98.8632 63.8994C99.5507 62.9723 100.337 62.3057 101.223 61.8994C102.108 61.4827 103.103 61.2744 104.207 61.2744C106.446 61.2744 108.191 62.0557 109.441 63.6182C110.691 65.1807 111.316 67.3525 111.316 70.1338C111.316 72.9255 110.686 75.1077 109.426 76.6807C108.176 78.2432 106.436 79.0244 104.207 79.0244C101.894 79.0244 100.103 78.1859 98.8319 76.5088H98.6444L98.7069 77.04C98.7902 77.8421 98.8319 78.5713 98.8319 79.2275V86.3994H96.2382V54.3994H98.8319V61.6807C98.8319 62.2223 98.8007 62.9619 98.7382 63.8994H98.8632ZM103.863 63.4775C102.113 63.4775 100.842 63.9567 100.051 64.915C99.259 65.8734 98.8527 67.3994 98.8319 69.4932V70.1338C98.8319 72.54 99.233 74.264 100.035 75.3057C100.837 76.3369 102.124 76.8525 103.894 76.8525C107.051 76.8525 108.629 74.6025 108.629 70.1025C108.629 67.863 108.243 66.2015 107.473 65.1182C106.702 64.0244 105.499 63.4775 103.863 63.4775Z" fill="black"/>
<path d="M154.129 78.7119L153.613 76.2744H153.488C152.634 77.3473 151.78 78.0765 150.926 78.4619C150.082 78.8369 149.024 79.0244 147.754 79.0244C146.056 79.0244 144.722 78.5869 143.754 77.7119C142.795 76.8369 142.316 75.5921 142.316 73.9775C142.316 70.5192 145.082 68.7067 150.613 68.54L153.519 68.4463V67.3838C153.519 66.04 153.228 65.0505 152.644 64.415C152.071 63.7692 151.149 63.4463 149.879 63.4463C148.452 63.4463 146.837 63.8838 145.035 64.7588L144.238 62.7744C145.082 62.3161 146.004 61.9567 147.004 61.6963C148.014 61.4359 149.024 61.3057 150.035 61.3057C152.077 61.3057 153.587 61.7588 154.566 62.665C155.556 63.5713 156.051 65.0244 156.051 67.0244V78.7119H154.129ZM148.269 76.8838C149.884 76.8838 151.149 76.4411 152.066 75.5557C152.993 74.6702 153.457 73.4307 153.457 71.8369V70.29L150.863 70.3994C148.801 70.4723 147.311 70.7952 146.394 71.3682C145.488 71.9307 145.035 72.8109 145.035 74.0088C145.035 74.9463 145.316 75.6598 145.879 76.1494C146.452 76.639 147.248 76.8838 148.269 76.8838ZM153.863 82.4307C153.863 83.4098 154.353 83.8994 155.332 83.8994C155.769 83.8994 156.274 83.8317 156.847 83.6963V85.3994C156.17 85.5869 155.519 85.6807 154.894 85.6807C152.738 85.6807 151.66 84.7015 151.66 82.7432C151.66 82.014 151.884 81.2952 152.332 80.5869C152.78 79.889 153.379 79.264 154.129 78.7119H156.004C155.295 79.3994 154.759 80.0244 154.394 80.5869C154.04 81.1598 153.863 81.7744 153.863 82.4307Z" fill="black"/>
<path d="M198.154 61.2744C198.915 61.2744 199.597 61.3369 200.201 61.4619L199.842 63.8682C199.133 63.7119 198.508 63.6338 197.967 63.6338C196.581 63.6338 195.394 64.1963 194.404 65.3213C193.425 66.4463 192.935 67.8473 192.935 69.5244V78.7119H190.342V61.5869H192.482L192.779 64.7588H192.904C193.54 63.6442 194.305 62.7848 195.201 62.1807C196.097 61.5765 197.081 61.2744 198.154 61.2744Z" fill="black"/>
<path d="M237.803 69.9463C238.251 69.3109 238.933 68.4775 239.85 67.4463L245.381 61.5869H248.459L241.522 68.8838L248.943 78.7119H245.803L239.756 70.6182L237.803 72.3057V78.7119H235.24V54.3994H237.803V67.29C237.803 67.863 237.761 68.7484 237.678 69.9463H237.803Z" fill="black"/>
<path d="M25.7866 255.212V212.088M25.7866 212.088L36.5731 222.869M25.7866 212.088L15 222.869" stroke="black" stroke-width="3" stroke-linecap="round" stroke-linejoin="round"/>
<path d="M68.3982 255.212V212.088L79.1848 222.869L68.3982 233.65L79.1848 244.431L68.3982 255.212Z" stroke="black" stroke-width="3" stroke-linecap="round" stroke-linejoin="round"/>
<path d="M121.796 255.212V212.088M132.583 212.088L121.796 222.869L111.01 212.088" stroke="black" stroke-width="3" stroke-linecap="round" stroke-linejoin="round"/>
<path d="M164.408 255.212V212.088L175.194 222.869" stroke="black" stroke-width="3" stroke-linecap="round" stroke-linejoin="round"/>
<path d="M217.806 255.212V212.088M207.019 255.212L217.806 244.431L228.592 255.212" stroke="black" stroke-width="3" stroke-linecap="round" stroke-linejoin="round"/>
<path d="M212.696 286.13V295.63H210.04V272.786H216.306C219.108 272.786 221.175 273.323 222.509 274.396C223.852 275.468 224.524 277.083 224.524 279.239C224.524 282.26 222.993 284.302 219.931 285.364L226.134 295.63H222.993L217.462 286.13H212.696ZM212.696 283.849H216.337C218.212 283.849 219.587 283.479 220.462 282.739C221.337 281.989 221.774 280.869 221.774 279.38C221.774 277.869 221.326 276.781 220.431 276.114C219.545 275.448 218.118 275.114 216.149 275.114H212.696V283.849Z" fill="black"/>
<path d="M137.487 295.63V284.489C137.487 283.125 137.195 282.104 136.612 281.427C136.029 280.739 135.122 280.396 133.893 280.396C132.279 280.396 131.086 280.859 130.315 281.786C129.544 282.713 129.159 284.14 129.159 286.067V295.63H126.565V284.489C126.565 283.125 126.273 282.104 125.69 281.427C125.107 280.739 124.195 280.396 122.956 280.396C121.331 280.396 120.138 280.885 119.378 281.864C118.628 282.833 118.253 284.427 118.253 286.646V295.63H115.659V278.505H117.768L118.19 280.849H118.315C118.805 280.015 119.492 279.364 120.378 278.896C121.273 278.427 122.273 278.192 123.378 278.192C126.055 278.192 127.805 279.161 128.628 281.099H128.753C129.263 280.203 130.003 279.494 130.971 278.974C131.94 278.453 133.044 278.192 134.284 278.192C136.221 278.192 137.669 278.692 138.628 279.692C139.596 280.682 140.081 282.271 140.081 284.458V295.63H137.487Z" fill="black"/>
<path d="M76.3248 278.224C78.5748 278.224 80.3196 278.994 81.5592 280.536C82.8092 282.067 83.4342 284.239 83.4342 287.052C83.4342 289.864 82.804 292.052 81.5436 293.614C80.2936 295.166 78.554 295.942 76.3248 295.942C75.2102 295.942 74.1894 295.739 73.2623 295.333C72.3457 294.916 71.5748 294.281 70.9498 293.427H70.7623L70.2155 295.63H68.3561V271.317H70.9498V277.224C70.9498 278.547 70.9082 279.734 70.8248 280.786H70.9498C72.1582 279.078 73.9498 278.224 76.3248 278.224ZM75.9498 280.396C74.179 280.396 72.903 280.906 72.1217 281.927C71.3405 282.937 70.9498 284.646 70.9498 287.052C70.9498 289.458 71.3509 291.182 72.153 292.224C72.955 293.255 74.2415 293.771 76.0123 293.771C77.6061 293.771 78.7936 293.192 79.5748 292.036C80.3561 290.869 80.7467 289.198 80.7467 287.021C80.7467 284.791 80.3561 283.13 79.5748 282.036C78.7936 280.942 77.5852 280.396 75.9498 280.396Z" fill="black"/>
<path d="M31.5057 293.802C31.9641 293.802 32.4068 293.771 32.8339 293.708C33.2609 293.635 33.5995 293.562 33.8495 293.489V295.474C33.5682 295.609 33.1516 295.718 32.5995 295.802C32.0578 295.896 31.5682 295.942 31.1307 295.942C27.8182 295.942 26.162 294.198 26.162 290.708V280.521H23.7089V279.271L26.162 278.192L27.2557 274.536H28.7557V278.505H33.7245V280.521H28.7557V290.599C28.7557 291.63 29.0005 292.422 29.4901 292.974C29.9797 293.526 30.6516 293.802 31.5057 293.802Z" fill="black"/>
<path d="M171.707 295.63H169.113V271.317H171.707V295.63Z" fill="black"/>
<path d="M120.68 146.903V103.778" stroke="black" stroke-width="3" stroke-linecap="round" stroke-linejoin="round"/>
<path d="M40.8506 103.778V146.903M35.4573 119.95L46.2438 130.731M35.4573 130.731L46.2438 119.95" stroke="black" stroke-width="3" stroke-linecap="round" stroke-linejoin="round"/>
<path d="M83.462 103.778V146.903M78.0687 119.95L88.8553 130.731" stroke="black" stroke-width="3" stroke-linecap="round" stroke-linejoin="round"/>
<path d="M157.899 146.903V103.778M163.292 119.95L152.505 130.731" stroke="black" stroke-width="3" stroke-linecap="round" stroke-linejoin="round"/>
<path d="M195.117 103.778V130.731L205.903 119.95V146.903" stroke="black" stroke-width="3" stroke-linecap="round" stroke-linejoin="round"/>
<path d="M49.4688 187.021V175.943C49.4688 174.548 49.151 173.506 48.5156 172.818C47.8802 172.131 46.8854 171.787 45.5312 171.787C43.7292 171.787 42.4115 172.277 41.5781 173.256C40.7552 174.235 40.3438 175.839 40.3438 178.068V187.021H37.75V162.709H40.3438V170.068C40.3438 170.954 40.3021 171.688 40.2188 172.271H40.375C40.8854 171.449 41.6094 170.803 42.5469 170.334C43.4948 169.855 44.5729 169.615 45.7812 169.615C47.875 169.615 49.4427 170.115 50.4844 171.115C51.5365 172.105 52.0625 173.683 52.0625 175.85V187.021H49.4688Z" fill="black"/>
<path d="M214.806 182.35C214.806 183.943 214.212 185.173 213.025 186.037C211.837 186.902 210.17 187.334 208.025 187.334C205.754 187.334 203.983 186.975 202.712 186.256V183.85C203.535 184.266 204.415 184.594 205.353 184.834C206.301 185.074 207.212 185.193 208.087 185.193C209.441 185.193 210.483 184.98 211.212 184.553C211.941 184.115 212.306 183.454 212.306 182.568C212.306 181.902 212.014 181.334 211.431 180.865C210.858 180.386 209.733 179.824 208.056 179.178C206.462 178.584 205.327 178.068 204.65 177.631C203.983 177.183 203.483 176.678 203.15 176.115C202.827 175.553 202.665 174.881 202.665 174.1C202.665 172.704 203.233 171.605 204.368 170.803C205.504 169.99 207.061 169.584 209.04 169.584C210.884 169.584 212.686 169.959 214.446 170.709L213.525 172.818C211.806 172.11 210.248 171.756 208.853 171.756C207.623 171.756 206.696 171.949 206.071 172.334C205.446 172.719 205.134 173.251 205.134 173.928C205.134 174.386 205.248 174.777 205.478 175.1C205.717 175.423 206.097 175.73 206.618 176.021C207.139 176.313 208.139 176.735 209.618 177.287C211.65 178.027 213.019 178.771 213.728 179.521C214.446 180.271 214.806 181.214 214.806 182.35Z" fill="black"/>
<path d="M126.778 187.021H124.185V169.896H126.778V187.021ZM123.966 165.256C123.966 164.662 124.112 164.23 124.403 163.959C124.695 163.678 125.06 163.537 125.497 163.537C125.914 163.537 126.273 163.678 126.575 163.959C126.877 164.24 127.028 164.673 127.028 165.256C127.028 165.839 126.877 166.277 126.575 166.568C126.273 166.85 125.914 166.99 125.497 166.99C125.06 166.99 124.695 166.85 124.403 166.568C124.112 166.277 123.966 165.839 123.966 165.256Z" fill="black"/>
<path d="M172.128 187.021L171.613 184.584H171.488C170.634 185.657 169.779 186.386 168.925 186.771C168.081 187.146 167.024 187.334 165.753 187.334C164.055 187.334 162.722 186.896 161.753 186.021C160.795 185.146 160.316 183.902 160.316 182.287C160.316 178.829 163.081 177.016 168.613 176.85L171.519 176.756V175.693C171.519 174.35 171.227 173.36 170.644 172.725C170.071 172.079 169.149 171.756 167.878 171.756C166.451 171.756 164.837 172.193 163.035 173.068L162.238 171.084C163.081 170.626 164.003 170.266 165.003 170.006C166.014 169.745 167.024 169.615 168.035 169.615C170.076 169.615 171.587 170.068 172.566 170.975C173.555 171.881 174.05 173.334 174.05 175.334V187.021H172.128ZM166.269 185.193C167.884 185.193 169.149 184.751 170.066 183.865C170.993 182.98 171.456 181.74 171.456 180.146V178.6L168.863 178.709C166.8 178.782 165.311 179.105 164.394 179.678C163.488 180.24 163.035 181.12 163.035 182.318C163.035 183.256 163.316 183.969 163.878 184.459C164.451 184.949 165.248 185.193 166.269 185.193Z" fill="black"/>
<path d="M92.6862 187.021V175.943C92.6862 174.548 92.3684 173.506 91.733 172.818C91.0976 172.131 90.1028 171.787 88.7487 171.787C86.957 171.787 85.6445 172.271 84.8112 173.24C83.9778 174.209 83.5612 175.808 83.5612 178.037V187.021H80.9674V169.896H83.0768L83.4987 172.24H83.6237C84.1549 171.396 84.8997 170.745 85.858 170.287C86.8164 169.818 87.8841 169.584 89.0612 169.584C91.1237 169.584 92.6757 170.084 93.7174 171.084C94.7591 172.074 95.2799 173.662 95.2799 175.85V187.021H92.6862Z" fill="black"/>
</svg>
