<svg width="673" height="125" viewBox="0 0 673 125" fill="none" xmlns="http://www.w3.org/2000/svg">
<path d="M1.94824 72.0525V1.94727M19.4827 1.94727L1.94824 19.4736M37.0172 1.94727L1.94824 36.9999" stroke="black" stroke-width="3" stroke-linecap="round" stroke-linejoin="round"/>
<path d="M45.5518 72.0525V1.94727L63.0862 19.4736V72.0525" stroke="black" stroke-width="3" stroke-linecap="round" stroke-linejoin="round"/>
<path d="M84.6206 1.94727V72.0525M84.6206 19.4736L102.155 36.9999L84.6206 54.5262" stroke="black" stroke-width="3" stroke-linecap="round" stroke-linejoin="round"/>
<path d="M121.689 72.0525V1.94727L139.224 19.4736M139.224 36.9999L121.689 19.4736" stroke="black" stroke-width="3" stroke-linecap="round" stroke-linejoin="round"/>
<path d="M156.759 72.0525V1.94727L174.293 19.4736L156.759 36.9999L174.293 72.0525" stroke="black" stroke-width="3" stroke-linecap="round" stroke-linejoin="round"/>
<path d="M194.828 72.0525V1.94727M221.129 2.43411L194.828 28.7236" stroke="black" stroke-width="3" stroke-linecap="round" stroke-linejoin="round"/>
<path d="M349.055 72.0525V1.94727" stroke="black" stroke-width="3" stroke-linecap="round" stroke-linejoin="round"/>
<path d="M313.24 2.43457V72.5398M312.802 37.0973L321.52 45.7631" stroke="black" stroke-width="3" stroke-linecap="round" stroke-linejoin="round"/>
<path d="M382.357 72.0525V1.94727M382.405 37.4867L373.589 46.1525" stroke="black" stroke-width="3" stroke-linecap="round" stroke-linejoin="round"/>
<path d="M277.451 1.94727V72.0525M268.733 37.0973H286.267" stroke="black" stroke-width="3" stroke-linecap="round" stroke-linejoin="round"/>
<path d="M418.94 2.04395V37.0966" stroke="black" stroke-width="3" stroke-linecap="round" stroke-linejoin="round"/>
<path d="M488.077 72.0525V1.94727L470.543 19.4736" stroke="black" stroke-width="3" stroke-linecap="round" stroke-linejoin="round"/>
<path d="M614.982 72.0525V1.94727L632.517 19.4736" stroke="black" stroke-width="3" stroke-linecap="round" stroke-linejoin="round"/>
<path d="M660.052 72.0519V37.0967" stroke="black" stroke-width="3" stroke-linecap="round" stroke-linejoin="round"/>
<path d="M525.612 2.04395V72.1492M534.379 37.0966L525.612 45.8597M534.379 19.5703L525.612 28.3334" stroke="black" stroke-width="3" stroke-linecap="round" stroke-linejoin="round"/>
<path d="M576.632 72.0525V1.94727M567.914 10.8078H585.448" stroke="black" stroke-width="3" stroke-linecap="round" stroke-linejoin="round"/>
<path d="M16.4688 99.4307H12.1094V114.54H9.51562V99.4307H6.45312V98.2588L9.51562 97.3213V96.3682C9.51562 92.1598 11.3542 90.0557 15.0312 90.0557C15.9375 90.0557 17 90.238 18.2188 90.6025L17.5469 92.6807C16.5469 92.3577 15.6927 92.1963 14.9844 92.1963C14.0052 92.1963 13.2812 92.5244 12.8125 93.1807C12.3438 93.8265 12.1094 94.8682 12.1094 96.3057V97.415H16.4688V99.4307Z" fill="black"/>
<path d="M47.1875 97.415V108.524C47.1875 109.92 47.5052 110.962 48.1406 111.649C48.776 112.337 49.7708 112.681 51.125 112.681C52.9167 112.681 54.224 112.191 55.0469 111.212C55.8802 110.233 56.2969 108.634 56.2969 106.415V97.415H58.8906V114.54H56.75L56.375 112.243H56.2344C55.7031 113.087 54.9635 113.733 54.0156 114.181C53.0781 114.629 52.0052 114.853 50.7969 114.853C48.7135 114.853 47.151 114.358 46.1094 113.368C45.0781 112.379 44.5625 110.795 44.5625 108.618V97.415H47.1875Z" fill="black"/>
<path d="M85.375 99.7275C86.0625 98.8005 86.849 98.1338 87.7344 97.7275C88.6198 97.3109 89.6146 97.1025 90.7188 97.1025C92.9583 97.1025 94.7031 97.8838 95.9531 99.4463C97.2031 101.009 97.8281 103.181 97.8281 105.962C97.8281 108.754 97.1979 110.936 95.9375 112.509C94.6875 114.071 92.9479 114.853 90.7188 114.853C88.4062 114.853 86.6146 114.014 85.3438 112.337H85.1562L85.2188 112.868C85.3021 113.67 85.3438 114.399 85.3438 115.056V122.228H82.75V90.2275H85.3438V97.5088C85.3438 98.0505 85.3125 98.79 85.25 99.7275H85.375ZM90.375 99.3057C88.625 99.3057 87.3542 99.7848 86.5625 100.743C85.7708 101.701 85.3646 103.228 85.3438 105.321V105.962C85.3438 108.368 85.7448 110.092 86.5469 111.134C87.349 112.165 88.6354 112.681 90.4062 112.681C93.5625 112.681 95.1406 110.431 95.1406 105.931C95.1406 103.691 94.7552 102.03 93.9844 100.946C93.2135 99.8525 92.0104 99.3057 90.375 99.3057Z" fill="black"/>
<path d="M131.281 114.54L130.766 112.103H130.641C129.786 113.175 128.932 113.905 128.078 114.29C127.234 114.665 126.177 114.853 124.906 114.853C123.208 114.853 121.875 114.415 120.906 113.54C119.948 112.665 119.469 111.42 119.469 109.806C119.469 106.347 122.234 104.535 127.766 104.368L130.672 104.274V103.212C130.672 101.868 130.38 100.879 129.797 100.243C129.224 99.5973 128.302 99.2744 127.031 99.2744C125.604 99.2744 123.99 99.7119 122.188 100.587L121.391 98.6025C122.234 98.1442 123.156 97.7848 124.156 97.5244C125.167 97.264 126.177 97.1338 127.188 97.1338C129.229 97.1338 130.74 97.5869 131.719 98.4932C132.708 99.3994 133.203 100.853 133.203 102.853V114.54H131.281ZM125.422 112.712C127.036 112.712 128.302 112.269 129.219 111.384C130.146 110.498 130.609 109.259 130.609 107.665V106.118L128.016 106.228C125.953 106.3 124.464 106.623 123.547 107.196C122.641 107.759 122.188 108.639 122.188 109.837C122.188 110.774 122.469 111.488 123.031 111.978C123.604 112.467 124.401 112.712 125.422 112.712ZM131.016 118.259C131.016 119.238 131.505 119.728 132.484 119.728C132.922 119.728 133.427 119.66 134 119.524V121.228C133.323 121.415 132.672 121.509 132.047 121.509C129.891 121.509 128.812 120.53 128.812 118.571C128.812 117.842 129.036 117.123 129.484 116.415C129.932 115.717 130.531 115.092 131.281 114.54H133.156C132.448 115.228 131.911 115.853 131.547 116.415C131.193 116.988 131.016 117.603 131.016 118.259Z" fill="black"/>
<path d="M165.562 97.1025C166.323 97.1025 167.005 97.165 167.609 97.29L167.25 99.6963C166.542 99.54 165.917 99.4619 165.375 99.4619C163.99 99.4619 162.802 100.024 161.812 101.149C160.833 102.274 160.344 103.675 160.344 105.353V114.54H157.75V97.415H159.891L160.188 100.587H160.312C160.948 99.4723 161.714 98.613 162.609 98.0088C163.505 97.4046 164.49 97.1025 165.562 97.1025Z" fill="black"/>
<path d="M194.312 105.774C194.76 105.139 195.443 104.306 196.359 103.274L201.891 97.415H204.969L198.031 104.712L205.453 114.54H202.312L196.266 106.446L194.312 108.134V114.54H191.75V90.2275H194.312V103.118C194.312 103.691 194.271 104.576 194.188 105.774H194.312Z" fill="black"/>
<path d="M658.797 105.04V114.54H656.141V91.6963H662.406C665.208 91.6963 667.276 92.2327 668.609 93.3057C669.953 94.3786 670.625 95.9932 670.625 98.1494C670.625 101.17 669.094 103.212 666.031 104.274L672.234 114.54H669.094L663.562 105.04H658.797ZM658.797 102.759H662.438C664.312 102.759 665.688 102.389 666.562 101.649C667.438 100.899 667.875 99.7796 667.875 98.29C667.875 96.7796 667.427 95.6911 666.531 95.0244C665.646 94.3577 664.219 94.0244 662.25 94.0244H658.797V102.759Z" fill="black"/>
<path d="M588.578 114.54V103.399C588.578 102.035 588.286 101.014 587.703 100.337C587.12 99.6494 586.214 99.3057 584.984 99.3057C583.37 99.3057 582.177 99.7692 581.406 100.696C580.635 101.623 580.25 103.05 580.25 104.978V114.54H577.656V103.399C577.656 102.035 577.365 101.014 576.781 100.337C576.198 99.6494 575.286 99.3057 574.047 99.3057C572.422 99.3057 571.229 99.7952 570.469 100.774C569.719 101.743 569.344 103.337 569.344 105.556V114.54H566.75V97.415H568.859L569.281 99.7588H569.406C569.896 98.9255 570.583 98.2744 571.469 97.8057C572.365 97.3369 573.365 97.1025 574.469 97.1025C577.146 97.1025 578.896 98.0713 579.719 100.009H579.844C580.354 99.113 581.094 98.4046 582.062 97.8838C583.031 97.363 584.135 97.1025 585.375 97.1025C587.312 97.1025 588.76 97.6025 589.719 98.6025C590.688 99.5921 591.172 101.181 591.172 103.368V114.54H588.578Z" fill="black"/>
<path d="M529.719 97.1338C531.969 97.1338 533.714 97.9046 534.953 99.4463C536.203 100.978 536.828 103.149 536.828 105.962C536.828 108.774 536.198 110.962 534.938 112.524C533.688 114.076 531.948 114.853 529.719 114.853C528.604 114.853 527.583 114.649 526.656 114.243C525.74 113.826 524.969 113.191 524.344 112.337H524.156L523.609 114.54H521.75V90.2275H524.344V96.1338C524.344 97.4567 524.302 98.6442 524.219 99.6963H524.344C525.552 97.988 527.344 97.1338 529.719 97.1338ZM529.344 99.3057C527.573 99.3057 526.297 99.8161 525.516 100.837C524.734 101.847 524.344 103.556 524.344 105.962C524.344 108.368 524.745 110.092 525.547 111.134C526.349 112.165 527.635 112.681 529.406 112.681C531 112.681 532.188 112.103 532.969 110.946C533.75 109.78 534.141 108.108 534.141 105.931C534.141 103.701 533.75 102.04 532.969 100.946C532.188 99.8525 530.979 99.3057 529.344 99.3057Z" fill="black"/>
<path d="M490.281 112.712C490.74 112.712 491.182 112.681 491.609 112.618C492.036 112.545 492.375 112.472 492.625 112.399V114.384C492.344 114.519 491.927 114.629 491.375 114.712C490.833 114.806 490.344 114.853 489.906 114.853C486.594 114.853 484.938 113.108 484.938 109.618V99.4307H482.484V98.1807L484.938 97.1025L486.031 93.4463H487.531V97.415H492.5V99.4307H487.531V109.509C487.531 110.54 487.776 111.332 488.266 111.884C488.755 112.436 489.427 112.712 490.281 112.712Z" fill="black"/>
<path d="M624.344 114.54H621.75V90.2275H624.344V114.54Z" fill="black"/>
<path d="M282.469 114.54V103.462C282.469 102.066 282.151 101.024 281.516 100.337C280.88 99.6494 279.885 99.3057 278.531 99.3057C276.729 99.3057 275.411 99.7952 274.578 100.774C273.755 101.754 273.344 103.358 273.344 105.587V114.54H270.75V90.2275H273.344V97.5869C273.344 98.4723 273.302 99.2067 273.219 99.79H273.375C273.885 98.9671 274.609 98.3213 275.547 97.8525C276.495 97.3734 277.573 97.1338 278.781 97.1338C280.875 97.1338 282.443 97.6338 283.484 98.6338C284.536 99.6234 285.062 101.201 285.062 103.368V114.54H282.469Z" fill="black"/>
<path d="M425.07 109.868C425.07 111.462 424.477 112.691 423.289 113.556C422.102 114.42 420.435 114.853 418.289 114.853C416.018 114.853 414.247 114.493 412.977 113.774V111.368C413.799 111.785 414.68 112.113 415.617 112.353C416.565 112.592 417.477 112.712 418.352 112.712C419.706 112.712 420.747 112.498 421.477 112.071C422.206 111.634 422.57 110.972 422.57 110.087C422.57 109.42 422.279 108.853 421.695 108.384C421.122 107.905 419.997 107.342 418.32 106.696C416.727 106.103 415.591 105.587 414.914 105.149C414.247 104.701 413.747 104.196 413.414 103.634C413.091 103.071 412.93 102.399 412.93 101.618C412.93 100.222 413.497 99.1234 414.633 98.3213C415.768 97.5088 417.326 97.1025 419.305 97.1025C421.148 97.1025 422.951 97.4775 424.711 98.2275L423.789 100.337C422.07 99.6286 420.513 99.2744 419.117 99.2744C417.888 99.2744 416.961 99.4671 416.336 99.8525C415.711 100.238 415.398 100.769 415.398 101.446C415.398 101.905 415.513 102.295 415.742 102.618C415.982 102.941 416.362 103.248 416.883 103.54C417.404 103.832 418.404 104.254 419.883 104.806C421.914 105.545 423.284 106.29 423.992 107.04C424.711 107.79 425.07 108.733 425.07 109.868Z" fill="black"/>
<path d="M350.557 114.54H347.963V97.415H350.557V114.54ZM347.744 92.7744C347.744 92.1807 347.89 91.7484 348.182 91.4775C348.473 91.1963 348.838 91.0557 349.275 91.0557C349.692 91.0557 350.051 91.1963 350.354 91.4775C350.656 91.7588 350.807 92.1911 350.807 92.7744C350.807 93.3577 350.656 93.7952 350.354 94.0869C350.051 94.3682 349.692 94.5088 349.275 94.5088C348.838 94.5088 348.473 94.3682 348.182 94.0869C347.89 93.7952 347.744 93.3577 347.744 92.7744Z" fill="black"/>
<path d="M387.664 114.54L387.148 112.103H387.023C386.169 113.175 385.315 113.905 384.46 114.29C383.617 114.665 382.559 114.853 381.289 114.853C379.591 114.853 378.257 114.415 377.289 113.54C376.33 112.665 375.851 111.42 375.851 109.806C375.851 106.347 378.617 104.535 384.148 104.368L387.054 104.274V103.212C387.054 101.868 386.763 100.879 386.179 100.243C385.606 99.5973 384.684 99.2744 383.414 99.2744C381.986 99.2744 380.372 99.7119 378.57 100.587L377.773 98.6025C378.617 98.1442 379.539 97.7848 380.539 97.5244C381.549 97.264 382.559 97.1338 383.57 97.1338C385.611 97.1338 387.122 97.5869 388.101 98.4932C389.091 99.3994 389.585 100.853 389.585 102.853V114.54H387.664ZM381.804 112.712C383.419 112.712 384.684 112.269 385.601 111.384C386.528 110.498 386.992 109.259 386.992 107.665V106.118L384.398 106.228C382.335 106.3 380.846 106.623 379.929 107.196C379.023 107.759 378.57 108.639 378.57 109.837C378.57 110.774 378.851 111.488 379.414 111.978C379.986 112.467 380.783 112.712 381.804 112.712Z" fill="black"/>
<path d="M321.075 114.54V103.462C321.075 102.066 320.757 101.024 320.122 100.337C319.487 99.6494 318.492 99.3057 317.138 99.3057C315.346 99.3057 314.034 99.79 313.2 100.759C312.367 101.728 311.95 103.326 311.95 105.556V114.54H309.356V97.415H311.466L311.888 99.7588H312.013C312.544 98.915 313.289 98.264 314.247 97.8057C315.205 97.3369 316.273 97.1025 317.45 97.1025C319.513 97.1025 321.065 97.6025 322.106 98.6025C323.148 99.5921 323.669 101.181 323.669 103.368V114.54H321.075Z" fill="black"/>
</svg>
