<svg width="681" height="127" viewBox="0 0 681 127" fill="none" xmlns="http://www.w3.org/2000/svg">
<g clip-path="url(#clip0_351_649)">
<path d="M348.884 73.0525V2.94727" stroke="black" stroke-width="3" stroke-linecap="round" stroke-linejoin="round"/>
<path d="M277.511 2.94727V73.0525M268.743 29.2367L286.278 46.7631M268.743 46.7631L286.278 29.2367" stroke="black" stroke-width="3" stroke-linecap="round" stroke-linejoin="round"/>
<path d="M316.581 2.94727V73.0525M307.813 29.2367L325.349 46.7631" stroke="black" stroke-width="3" stroke-linecap="round" stroke-linejoin="round"/>
<path d="M380.187 73.0525V2.94727M388.954 29.2367L371.419 46.7631" stroke="black" stroke-width="3" stroke-linecap="round" stroke-linejoin="round"/>
<path d="M404.489 2.94727V46.7631L422.024 29.2367V73.0525" stroke="black" stroke-width="3" stroke-linecap="round" stroke-linejoin="round"/>
<path d="M486.165 72.5662V2.46094M486.165 2.46094L503.7 19.9873M486.165 2.46094L468.63 19.9873" stroke="black" stroke-width="3" stroke-linecap="round" stroke-linejoin="round"/>
<path d="M521.235 72.5662V2.46094L538.771 19.9873L521.235 37.5136L538.771 55.0399L521.235 72.5662Z" stroke="black" stroke-width="3" stroke-linecap="round" stroke-linejoin="round"/>
<path d="M576.841 72.5662V2.46094M594.376 2.46094L576.841 19.9873L559.306 2.46094" stroke="black" stroke-width="3" stroke-linecap="round" stroke-linejoin="round"/>
<path d="M615.911 72.5662V2.46094L633.446 19.9873" stroke="black" stroke-width="3" stroke-linecap="round" stroke-linejoin="round"/>
<path d="M661.517 72.5662V2.46094M643.981 72.5662L661.517 55.0399L679.052 72.5662" stroke="black" stroke-width="3" stroke-linecap="round" stroke-linejoin="round"/>
<path d="M46.5537 73.0525V2.94727L64.0889 20.4736V73.0525" stroke="black" stroke-width="3" stroke-linecap="round" stroke-linejoin="round"/>
<path d="M84.624 2.94727V73.0525M84.624 20.4736L102.159 37.9999L84.624 55.5262" stroke="black" stroke-width="3" stroke-linecap="round" stroke-linejoin="round"/>
<path d="M155.765 73.0525V2.94727L173.3 20.4736L155.765 37.9999L173.3 73.0525" stroke="black" stroke-width="3" stroke-linecap="round" stroke-linejoin="round"/>
<path d="M194.835 73.0525V2.94727M221.138 2.94727L194.835 29.2367" stroke="black" stroke-width="3" stroke-linecap="round" stroke-linejoin="round"/>
<path d="M127.462 73.0525V2.94727M136.229 55.5262L118.694 37.9999M118.694 20.4736L136.229 37.9999" stroke="black" stroke-width="3" stroke-linecap="round" stroke-linejoin="round"/>
<path d="M19.4834 2.94727L1.94824 20.4736M37.0185 2.94727L1.94824 37.9999M1.94824 73.0525V2.94727" stroke="black" stroke-width="3" stroke-linecap="round" stroke-linejoin="round"/>
</g>
<path d="M16.4688 101.891H12.1094V117H9.51562V101.891H6.45312V100.719L9.51562 99.7812V98.8281C9.51562 94.6198 11.3542 92.5156 15.0312 92.5156C15.9375 92.5156 17 92.6979 18.2188 93.0625L17.5469 95.1406C16.5469 94.8177 15.6927 94.6562 14.9844 94.6562C14.0052 94.6562 13.2812 94.9844 12.8125 95.6406C12.3438 96.2865 12.1094 97.3281 12.1094 98.7656V99.875H16.4688V101.891Z" fill="black"/>
<path d="M47.1875 99.875V110.984C47.1875 112.38 47.5052 113.422 48.1406 114.109C48.776 114.797 49.7708 115.141 51.125 115.141C52.9167 115.141 54.224 114.651 55.0469 113.672C55.8802 112.693 56.2969 111.094 56.2969 108.875V99.875H58.8906V117H56.75L56.375 114.703H56.2344C55.7031 115.547 54.9635 116.193 54.0156 116.641C53.0781 117.089 52.0052 117.312 50.7969 117.312C48.7135 117.312 47.151 116.818 46.1094 115.828C45.0781 114.839 44.5625 113.255 44.5625 111.078V99.875H47.1875Z" fill="black"/>
<path d="M85.375 102.188C86.0625 101.26 86.849 100.594 87.7344 100.188C88.6198 99.7708 89.6146 99.5625 90.7188 99.5625C92.9583 99.5625 94.7031 100.344 95.9531 101.906C97.2031 103.469 97.8281 105.641 97.8281 108.422C97.8281 111.214 97.1979 113.396 95.9375 114.969C94.6875 116.531 92.9479 117.312 90.7188 117.312C88.4062 117.312 86.6146 116.474 85.3438 114.797H85.1562L85.2188 115.328C85.3021 116.13 85.3438 116.859 85.3438 117.516V124.688H82.75V92.6875H85.3438V99.9688C85.3438 100.51 85.3125 101.25 85.25 102.188H85.375ZM90.375 101.766C88.625 101.766 87.3542 102.245 86.5625 103.203C85.7708 104.161 85.3646 105.688 85.3438 107.781V108.422C85.3438 110.828 85.7448 112.552 86.5469 113.594C87.349 114.625 88.6354 115.141 90.4062 115.141C93.5625 115.141 95.1406 112.891 95.1406 108.391C95.1406 106.151 94.7552 104.49 93.9844 103.406C93.2135 102.312 92.0104 101.766 90.375 101.766Z" fill="black"/>
<path d="M131.281 117L130.766 114.562H130.641C129.786 115.635 128.932 116.365 128.078 116.75C127.234 117.125 126.177 117.312 124.906 117.312C123.208 117.312 121.875 116.875 120.906 116C119.948 115.125 119.469 113.88 119.469 112.266C119.469 108.807 122.234 106.995 127.766 106.828L130.672 106.734V105.672C130.672 104.328 130.38 103.339 129.797 102.703C129.224 102.057 128.302 101.734 127.031 101.734C125.604 101.734 123.99 102.172 122.188 103.047L121.391 101.062C122.234 100.604 123.156 100.245 124.156 99.9844C125.167 99.724 126.177 99.5938 127.188 99.5938C129.229 99.5938 130.74 100.047 131.719 100.953C132.708 101.859 133.203 103.312 133.203 105.312V117H131.281ZM125.422 115.172C127.036 115.172 128.302 114.729 129.219 113.844C130.146 112.958 130.609 111.719 130.609 110.125V108.578L128.016 108.688C125.953 108.76 124.464 109.083 123.547 109.656C122.641 110.219 122.188 111.099 122.188 112.297C122.188 113.234 122.469 113.948 123.031 114.438C123.604 114.927 124.401 115.172 125.422 115.172ZM131.016 120.719C131.016 121.698 131.505 122.188 132.484 122.188C132.922 122.188 133.427 122.12 134 121.984V123.688C133.323 123.875 132.672 123.969 132.047 123.969C129.891 123.969 128.812 122.99 128.812 121.031C128.812 120.302 129.036 119.583 129.484 118.875C129.932 118.177 130.531 117.552 131.281 117H133.156C132.448 117.688 131.911 118.312 131.547 118.875C131.193 119.448 131.016 120.062 131.016 120.719Z" fill="black"/>
<path d="M165.562 99.5625C166.323 99.5625 167.005 99.625 167.609 99.75L167.25 102.156C166.542 102 165.917 101.922 165.375 101.922C163.99 101.922 162.802 102.484 161.812 103.609C160.833 104.734 160.344 106.135 160.344 107.812V117H157.75V99.875H159.891L160.188 103.047H160.312C160.948 101.932 161.714 101.073 162.609 100.469C163.505 99.8646 164.49 99.5625 165.562 99.5625Z" fill="black"/>
<path d="M194.312 108.234C194.76 107.599 195.443 106.766 196.359 105.734L201.891 99.875H204.969L198.031 107.172L205.453 117H202.312L196.266 108.906L194.312 110.594V117H191.75V92.6875H194.312V105.578C194.312 106.151 194.271 107.036 194.188 108.234H194.312Z" fill="black"/>
<path d="M658.797 107.5V117H656.141V94.1562H662.406C665.208 94.1562 667.276 94.6927 668.609 95.7656C669.953 96.8385 670.625 98.4531 670.625 100.609C670.625 103.63 669.094 105.672 666.031 106.734L672.234 117H669.094L663.562 107.5H658.797ZM658.797 105.219H662.438C664.312 105.219 665.688 104.849 666.562 104.109C667.438 103.359 667.875 102.24 667.875 100.75C667.875 99.2396 667.427 98.151 666.531 97.4844C665.646 96.8177 664.219 96.4844 662.25 96.4844H658.797V105.219Z" fill="black"/>
<path d="M588.578 117V105.859C588.578 104.495 588.286 103.474 587.703 102.797C587.12 102.109 586.214 101.766 584.984 101.766C583.37 101.766 582.177 102.229 581.406 103.156C580.635 104.083 580.25 105.51 580.25 107.438V117H577.656V105.859C577.656 104.495 577.365 103.474 576.781 102.797C576.198 102.109 575.286 101.766 574.047 101.766C572.422 101.766 571.229 102.255 570.469 103.234C569.719 104.203 569.344 105.797 569.344 108.016V117H566.75V99.875H568.859L569.281 102.219H569.406C569.896 101.385 570.583 100.734 571.469 100.266C572.365 99.7969 573.365 99.5625 574.469 99.5625C577.146 99.5625 578.896 100.531 579.719 102.469H579.844C580.354 101.573 581.094 100.865 582.062 100.344C583.031 99.8229 584.135 99.5625 585.375 99.5625C587.312 99.5625 588.76 100.062 589.719 101.062C590.688 102.052 591.172 103.641 591.172 105.828V117H588.578Z" fill="black"/>
<path d="M529.719 99.5938C531.969 99.5938 533.714 100.365 534.953 101.906C536.203 103.438 536.828 105.609 536.828 108.422C536.828 111.234 536.198 113.422 534.938 114.984C533.688 116.536 531.948 117.312 529.719 117.312C528.604 117.312 527.583 117.109 526.656 116.703C525.74 116.286 524.969 115.651 524.344 114.797H524.156L523.609 117H521.75V92.6875H524.344V98.5938C524.344 99.9167 524.302 101.104 524.219 102.156H524.344C525.552 100.448 527.344 99.5938 529.719 99.5938ZM529.344 101.766C527.573 101.766 526.297 102.276 525.516 103.297C524.734 104.307 524.344 106.016 524.344 108.422C524.344 110.828 524.745 112.552 525.547 113.594C526.349 114.625 527.635 115.141 529.406 115.141C531 115.141 532.188 114.562 532.969 113.406C533.75 112.24 534.141 110.568 534.141 108.391C534.141 106.161 533.75 104.5 532.969 103.406C532.188 102.312 530.979 101.766 529.344 101.766Z" fill="black"/>
<path d="M490.281 115.172C490.74 115.172 491.182 115.141 491.609 115.078C492.036 115.005 492.375 114.932 492.625 114.859V116.844C492.344 116.979 491.927 117.089 491.375 117.172C490.833 117.266 490.344 117.312 489.906 117.312C486.594 117.312 484.938 115.568 484.938 112.078V101.891H482.484V100.641L484.938 99.5625L486.031 95.9062H487.531V99.875H492.5V101.891H487.531V111.969C487.531 113 487.776 113.792 488.266 114.344C488.755 114.896 489.427 115.172 490.281 115.172Z" fill="black"/>
<path d="M624.344 117H621.75V92.6875H624.344V117Z" fill="black"/>
<path d="M282.469 117V105.922C282.469 104.526 282.151 103.484 281.516 102.797C280.88 102.109 279.885 101.766 278.531 101.766C276.729 101.766 275.411 102.255 274.578 103.234C273.755 104.214 273.344 105.818 273.344 108.047V117H270.75V92.6875H273.344V100.047C273.344 100.932 273.302 101.667 273.219 102.25H273.375C273.885 101.427 274.609 100.781 275.547 100.312C276.495 99.8333 277.573 99.5938 278.781 99.5938C280.875 99.5938 282.443 100.094 283.484 101.094C284.536 102.083 285.062 103.661 285.062 105.828V117H282.469Z" fill="black"/>
<path d="M425.07 112.328C425.07 113.922 424.477 115.151 423.289 116.016C422.102 116.88 420.435 117.312 418.289 117.312C416.018 117.312 414.247 116.953 412.977 116.234V113.828C413.799 114.245 414.68 114.573 415.617 114.812C416.565 115.052 417.477 115.172 418.352 115.172C419.706 115.172 420.747 114.958 421.477 114.531C422.206 114.094 422.57 113.432 422.57 112.547C422.57 111.88 422.279 111.312 421.695 110.844C421.122 110.365 419.997 109.802 418.32 109.156C416.727 108.562 415.591 108.047 414.914 107.609C414.247 107.161 413.747 106.656 413.414 106.094C413.091 105.531 412.93 104.859 412.93 104.078C412.93 102.682 413.497 101.583 414.633 100.781C415.768 99.9688 417.326 99.5625 419.305 99.5625C421.148 99.5625 422.951 99.9375 424.711 100.688L423.789 102.797C422.07 102.089 420.513 101.734 419.117 101.734C417.888 101.734 416.961 101.927 416.336 102.312C415.711 102.698 415.398 103.229 415.398 103.906C415.398 104.365 415.513 104.755 415.742 105.078C415.982 105.401 416.362 105.708 416.883 106C417.404 106.292 418.404 106.714 419.883 107.266C421.914 108.005 423.284 108.75 423.992 109.5C424.711 110.25 425.07 111.193 425.07 112.328Z" fill="black"/>
<path d="M350.557 117H347.963V99.875H350.557V117ZM347.744 95.2344C347.744 94.6406 347.89 94.2083 348.182 93.9375C348.473 93.6562 348.838 93.5156 349.275 93.5156C349.692 93.5156 350.051 93.6562 350.354 93.9375C350.656 94.2188 350.807 94.651 350.807 95.2344C350.807 95.8177 350.656 96.2552 350.354 96.5469C350.051 96.8281 349.692 96.9688 349.275 96.9688C348.838 96.9688 348.473 96.8281 348.182 96.5469C347.89 96.2552 347.744 95.8177 347.744 95.2344Z" fill="black"/>
<path d="M387.664 117L387.148 114.562H387.023C386.169 115.635 385.315 116.365 384.46 116.75C383.617 117.125 382.559 117.312 381.289 117.312C379.591 117.312 378.257 116.875 377.289 116C376.33 115.125 375.851 113.88 375.851 112.266C375.851 108.807 378.617 106.995 384.148 106.828L387.054 106.734V105.672C387.054 104.328 386.763 103.339 386.179 102.703C385.606 102.057 384.684 101.734 383.414 101.734C381.986 101.734 380.372 102.172 378.57 103.047L377.773 101.062C378.617 100.604 379.539 100.245 380.539 99.9844C381.549 99.724 382.559 99.5938 383.57 99.5938C385.611 99.5938 387.122 100.047 388.101 100.953C389.091 101.859 389.585 103.312 389.585 105.312V117H387.664ZM381.804 115.172C383.419 115.172 384.684 114.729 385.601 113.844C386.528 112.958 386.992 111.719 386.992 110.125V108.578L384.398 108.688C382.335 108.76 380.846 109.083 379.929 109.656C379.023 110.219 378.57 111.099 378.57 112.297C378.57 113.234 378.851 113.948 379.414 114.438C379.986 114.927 380.783 115.172 381.804 115.172Z" fill="black"/>
<path d="M321.075 117V105.922C321.075 104.526 320.757 103.484 320.122 102.797C319.487 102.109 318.492 101.766 317.138 101.766C315.346 101.766 314.034 102.25 313.2 103.219C312.367 104.188 311.95 105.786 311.95 108.016V117H309.356V99.875H311.466L311.888 102.219H312.013C312.544 101.375 313.289 100.724 314.247 100.266C315.205 99.7969 316.273 99.5625 317.45 99.5625C319.513 99.5625 321.065 100.062 322.106 101.062C323.148 102.052 323.669 103.641 323.669 105.828V117H321.075Z" fill="black"/>
<defs>
<clipPath id="clip0_351_649">
<rect width="681" height="75" fill="white"/>
</clipPath>
</defs>
</svg>
