<?xml version="1.0" encoding="UTF-8"?>
<svg id="Calque_2" data-name="Calque 2" xmlns="http://www.w3.org/2000/svg" viewBox="0 0 393.69 100.43">
  <defs>
    <style>
      .cls-1 {
        fill: #172b2c;
        stroke-width: 0px;
      }
    </style>
  </defs>
  <g id="Calque_1-2" data-name="Calque 1">
    <path class="cls-1" d="m14.4,100.43c-1.93-23.25-2.68-47.17-3.19-70.52-.15-8.37-.24-16.75-.29-25.13.34-.29,1.46-1.22,1.78-1.45,7.47-5.48,17-3.95,23.14,2.6,2.75,2.82,4.75,6,6.57,9.37,6.51,11.6,10.06,24.8,10.67,38.04.65,14.17-.39,28.27-1.76,42.34-.7-9.37-1.03-18.75-1.71-28.05-.89-13.68-2.61-27.5-8.4-40.01C36.89,18.5,28.83.84,16.64,9.06c0,0,1.23-2.65,1.23-2.65-.04,7.84-.14,15.67-.28,23.51-.51,23.35-1.26,47.26-3.19,70.52h0Z"/>
    <path class="cls-1" d="m0,30.32c11.34,8.01,22.24,23.56,25.82,36.98C14.46,59.32,3.61,43.73,0,30.32h0Z"/>
    <g>
      <path class="cls-1" d="m74.12,53.14l-6.86,6.86-6.86-6.86,6.86-6.86,6.86,6.86Zm0,37.1l-6.86,6.86-6.86-6.86,6.86-6.86,6.86,6.86Z"/>
      <path class="cls-1" d="m106.94,97.1h-9.55V32.91c-2.62-4.27-6-8.32-10.12-12.14v76.33h-9.55V1.88c.52.38,1.85,1.29,3.99,2.75s3.62,2.51,4.44,3.15c.82.64,2.04,1.57,3.65,2.81,1.61,1.24,3,2.4,4.16,3.48,1.16,1.09,2.3,2.23,3.43,3.43V3.46h9.55v93.64Z"/>
      <path class="cls-1" d="m150.67,39.32c0,10.79-1.48,20.8-4.44,30.01-2.96,9.22-7.55,18.47-13.77,27.77h-3.71c-6.22-9.29-10.81-18.55-13.77-27.77-2.96-9.22-4.44-19.22-4.44-30.01,0-11.69,2.17-23.64,6.52-35.86h27.09c4.35,12.22,6.52,24.17,6.52,35.86Zm-9.44,0c0-8.84-1.31-17.61-3.93-26.3h-13.38c-2.62,8.69-3.93,17.46-3.93,26.3,0,14.84,3.56,29.04,10.68,42.6,7.04-13.41,10.57-27.61,10.57-42.6Z"/>
      <path class="cls-1" d="m186.08,5.48c-2.17,5.55-4.38,10.12-6.63,13.71-2.25,3.6-5.4,7.12-9.44,10.57,10.57,12.52,15.85,27.65,15.85,45.41,0,7.79-1.09,15.1-3.26,21.92h-8.43l-.9-1.8c2.02-6.52,3.04-13.26,3.04-20.23,0-14.01-4.16-26.68-12.48-38v60.03h-9.55V3.46h30.91l.9,2.02Zm-13.94,7.53h-8.32v9.55c3.15-2.77,5.92-5.96,8.32-9.55Z"/>
      <path class="cls-1" d="m221.48,5.48c-2.17,5.55-4.38,10.12-6.63,13.71-2.25,3.6-5.4,7.12-9.44,10.57,10.57,12.52,15.85,27.65,15.85,45.41,0,7.79-1.09,15.1-3.26,21.92h-8.43l-.9-1.8c2.02-6.52,3.04-13.26,3.04-20.23,0-14.01-4.16-26.68-12.48-38v60.03h-9.55V3.46h30.91l.9,2.02Zm-13.94,7.53h-8.32v9.55c3.15-2.77,5.92-5.96,8.32-9.55Z"/>
      <path class="cls-1" d="m257.57,29.76c0,25.48-7.04,47.93-21.13,67.33h-11.35V3.46h9.55v78.91c8.92-15.89,13.38-33.42,13.38-52.61,0-8.84-1.01-17.61-3.04-26.3h9.67c1.95,8.84,2.92,17.61,2.92,26.3Z"/>
      <path class="cls-1" d="m270.61,97.1h-9.44V3.46h9.44v93.64Z"/>
      <path class="cls-1" d="m303.77,45.72c0,19.94-6.11,37.06-18.32,51.37h-10.34l-.9-1.8c13.41-13.34,20.12-29.86,20.12-49.57,0-3.75-.3-7.72-.9-11.92h-17.31v-4.72c0-6.82,2.38-12.76,7.14-17.82,4.76-5.06,10.55-7.66,17.37-7.81v9.56c-3.22,0-6.18,1.09-8.88,3.26-2.7,2.17-4.46,4.87-5.28,8.09h14.73c1.72,8.24,2.58,15.36,2.58,21.36Z"/>
      <path class="cls-1" d="m337.94,76.07c0,7.19-1.01,14.2-3.04,21.02h-8.43l-.9-1.8c1.95-6.29,2.92-12.7,2.92-19.22,0-13.79-3.9-25.97-11.69-36.53v57.55h-9.44V3.46h9.44v17.76c4.2-4.95,7.31-10.87,9.33-17.76h9.78c-2.4,10.19-7.19,19.07-14.39,26.64,5.32,6.29,9.39,13.43,12.2,21.41,2.81,7.98,4.21,16.17,4.21,24.56Z"/>
      <path class="cls-1" d="m376.38,97.1h-9.44v-44.4h-10.12c-1.35,7.42-2.02,14.95-2.02,22.59s.6,14.84,1.8,21.81h-9.55c-1.12-7.19-1.69-14.46-1.69-21.81,0-7.87.6-15.4,1.8-22.59h-5.62v-9.55h7.53c3.07-13.71,8.58-26.94,16.52-39.68h10.79v93.64Zm-9.44-53.96v-22.48c-3.15,6.82-5.84,14.31-8.09,22.48h8.09Z"/>
      <path class="cls-1" d="m393.69,53.14l-6.86,6.86-6.86-6.86,6.86-6.86,6.86,6.86Zm0,37.1l-6.86,6.86-6.86-6.86,6.86-6.86,6.86,6.86Z"/>
    </g>
  </g>
</svg>