<svg width="45" height="90" viewBox="0 0 45 90" fill="none" xmlns="http://www.w3.org/2000/svg">
<path d="M2.40909 74.3636H4.09091L8.04545 84.0227H8.18182L12.1364 74.3636H13.8182V86H12.5V77.1591H12.3864L8.75 86H7.47727L3.84091 77.1591H3.72727V86H2.40909V74.3636ZM20.1207 86.1818C19.2798 86.1818 18.5545 85.9962 17.9446 85.625C17.3385 85.25 16.8707 84.7273 16.5412 84.0568C16.2154 83.3826 16.0526 82.5985 16.0526 81.7045C16.0526 80.8106 16.2154 80.0227 16.5412 79.3409C16.8707 78.6553 17.3291 78.1212 17.9162 77.7386C18.5071 77.3523 19.1965 77.1591 19.9844 77.1591C20.4389 77.1591 20.8878 77.2348 21.331 77.3864C21.7741 77.5379 22.1776 77.7841 22.5412 78.125C22.9048 78.4621 23.1946 78.9091 23.4105 79.4659C23.6264 80.0227 23.7344 80.7083 23.7344 81.5227V82.0909H17.0071V80.9318H22.3707C22.3707 80.4394 22.2723 80 22.0753 79.6136C21.8821 79.2273 21.6056 78.9223 21.2457 78.6989C20.8897 78.4754 20.4692 78.3636 19.9844 78.3636C19.4503 78.3636 18.9882 78.4962 18.598 78.7614C18.2116 79.0227 17.9143 79.3636 17.706 79.7841C17.4976 80.2045 17.3935 80.6553 17.3935 81.1364V81.9091C17.3935 82.5682 17.5071 83.1269 17.7344 83.5852C17.9654 84.0398 18.2855 84.3864 18.6946 84.625C19.1037 84.8598 19.5791 84.9773 20.1207 84.9773C20.473 84.9773 20.7912 84.928 21.0753 84.8295C21.3632 84.7273 21.6113 84.5758 21.8196 84.375C22.0279 84.1705 22.1889 83.9167 22.3026 83.6136L23.598 83.9773C23.4616 84.4167 23.2325 84.803 22.9105 85.1364C22.5885 85.4659 22.1908 85.7235 21.7173 85.9091C21.2438 86.0909 20.7116 86.1818 20.1207 86.1818ZM27.1151 80.75V86H25.7741V77.2727H27.0696V78.6364H27.1832C27.3878 78.1932 27.6984 77.8371 28.1151 77.5682C28.5317 77.2955 29.0696 77.1591 29.7287 77.1591C30.3196 77.1591 30.8366 77.2803 31.2798 77.5227C31.723 77.7614 32.0677 78.125 32.3139 78.6136C32.5601 79.0985 32.6832 79.7121 32.6832 80.4545V86H31.3423V80.5455C31.3423 79.8598 31.1643 79.3258 30.8082 78.9432C30.4522 78.5568 29.9635 78.3636 29.3423 78.3636C28.9143 78.3636 28.5317 78.4564 28.1946 78.642C27.8613 78.8277 27.598 79.0985 27.4048 79.4545C27.2116 79.8106 27.1151 80.2424 27.1151 80.75ZM40.6335 82.4318V77.2727H41.9744V86H40.6335V84.5227H40.5426C40.3381 84.9659 40.0199 85.3428 39.5881 85.6534C39.1563 85.9602 38.6108 86.1136 37.9517 86.1136C37.4062 86.1136 36.9214 85.9943 36.4972 85.7557C36.0729 85.5133 35.7396 85.1496 35.4972 84.6648C35.2547 84.1761 35.1335 83.5606 35.1335 82.8182V77.2727H36.4744V82.7273C36.4744 83.3636 36.6525 83.8712 37.0085 84.25C37.3684 84.6288 37.8267 84.8182 38.3835 84.8182C38.7169 84.8182 39.0559 84.733 39.4006 84.5625C39.7491 84.392 40.0407 84.1307 40.2756 83.7784C40.5142 83.4261 40.6335 82.9773 40.6335 82.4318Z" fill="white"/>
<path d="M2.22841 77C-1.25799 54.5 2.22841 3.73077 18.498 2C49.0768 22.8339 45.4786 42.5855 41.1592 77" stroke="url(#paint0_linear_307_364)" stroke-width="2"/>
<line x1="9.05664" y1="33.5" x2="35.0566" y2="33.5" stroke="white" stroke-width="4"/>
<line x1="9.05664" y1="42.5" x2="35.0566" y2="42.5" stroke="white" stroke-width="4"/>
<line x1="9.05664" y1="51.5" x2="35.0566" y2="51.5" stroke="white" stroke-width="4"/>
<defs>
<linearGradient id="paint0_linear_307_364" x1="22.5" y1="2" x2="22.5" y2="77" gradientUnits="userSpaceOnUse">
<stop offset="0.544792" stop-color="white"/>
<stop offset="1" stop-color="white" stop-opacity="0"/>
</linearGradient>
</defs>
</svg>
