<svg width="38" height="38" viewBox="0 0 38 38" fill="none" xmlns="http://www.w3.org/2000/svg">
<path d="M14.3134 34.1048C15.8334 34.564 17.3692 34.8332 19.0001 34.8332C23.1993 34.8332 27.2266 33.165 30.1959 30.1957C33.1653 27.2264 34.8334 23.1991 34.8334 18.9998C34.8334 16.9206 34.4239 14.8617 33.6282 12.9407C32.8325 11.0197 31.6662 9.27424 30.1959 7.80398C28.7257 6.33372 26.9802 5.16744 25.0592 4.37174C23.1382 3.57605 21.0793 3.1665 19.0001 3.1665C16.9208 3.1665 14.8619 3.57605 12.9409 4.37174C11.0199 5.16744 9.27448 6.33372 7.80422 7.80398C4.8349 10.7733 3.16675 14.8006 3.16675 18.9998C3.16675 25.729 7.39425 31.5082 13.3634 33.7882C13.2209 32.5532 13.0784 30.5107 13.3634 29.1015L15.1842 21.2798C15.1842 21.2798 14.7251 20.3615 14.7251 18.9048C14.7251 16.7198 16.0867 15.089 17.6384 15.089C19.0001 15.089 19.6334 16.0865 19.6334 17.369C19.6334 18.7307 18.7309 20.6782 18.2717 22.5465C18.0026 24.0982 19.0951 25.4598 20.6784 25.4598C23.4967 25.4598 25.6817 22.4515 25.6817 18.2082C25.6817 14.4082 22.9584 11.8115 19.0476 11.8115C14.5826 11.8115 11.9542 15.1365 11.9542 18.6357C11.9542 19.9973 12.3976 21.3748 13.1259 22.2773C13.2684 22.3723 13.2684 22.499 13.2209 22.7365L12.7617 24.4623C12.7617 24.7315 12.5876 24.8265 12.3184 24.6365C10.2917 23.7498 9.12008 20.8682 9.12008 18.5407C9.12008 13.5373 12.6667 8.99317 19.5067 8.99317C24.9534 8.99317 29.1967 12.904 29.1967 18.0973C29.1967 23.544 25.8242 27.914 20.9951 27.914C19.4592 27.914 17.9551 27.0907 17.4167 26.1248L16.3559 29.8773C15.9917 31.239 14.9942 33.0598 14.3134 34.1523V34.1048Z" fill="#46B2BB"/>
</svg>
