<svg width="320" height="419" viewBox="0 0 320 419" fill="none" xmlns="http://www.w3.org/2000/svg">
<path d="M0 292.976C27.1362 261.856 56.3372 225.402 83.393 193.988C93.073 182.784 102.753 171.553 112.594 160.59C116.75 154.237 124.902 144.158 131.23 137.323C164.694 102.129 212.397 68.2217 263.399 79.0507C317.376 91.3003 322.471 133.624 288.953 172.598C249.053 217.844 181.373 244.085 122.81 222.561L126.055 215.726C126.993 216.101 128.039 218.031 127.932 218.862C128.039 221.998 124.848 223.338 122.757 224.866C120.263 226.528 113.693 230.415 111.092 231.996C77.6279 251.724 42.8495 270.675 8.527 288.875L4.53165 290.966L2.52056 292.011L1.52842 292.521L1.01895 292.789C0.938506 292.789 0.858063 292.896 0.616733 292.976C0.375403 293.03 0.134072 292.976 0.0268144 292.976H0ZM0.616733 292.467C0.616733 292.467 0.589918 292.199 0.509474 292.172C0.402217 292.172 0.509475 292.145 0.589918 292.065L2.0379 291.18L3.94173 289.974C36.1995 269.71 75.0269 246.203 107.392 225.992C111.2 223.473 117.501 219.639 121.041 216.879L121.228 216.718C120.746 217.147 120.236 218.353 120.343 219.264C120.263 220.015 121.228 221.945 122.167 222.266L125.411 215.431C181.051 233.926 244.923 209.936 283.617 167.961C315.58 132.552 312.952 94.8385 262.782 81.8115C223.338 71.7867 184.537 94.1684 156.516 120.383C142.063 133.866 129.138 149.09 117.984 165.334C80.6311 208.14 38.7737 250.143 0.643547 292.467H0.616733Z" fill="url(#paint0_linear_131_179)"/>
<path d="M306.752 129.785C314.563 92.1175 323.044 21.8524 279.59 3.76961C247.651 -5.75468 212.624 41.0619 196.306 63.947L190.991 57.9373C196.413 55.6837 201.378 55.1739 206.881 54.0203C231.064 48.7082 293.467 42.0546 291.373 8.70614L292.178 8.57199C295.131 19.089 289.011 30.1425 280.825 36.5815C264.265 49.7008 243.517 54.9325 223.468 59.5203C214.208 61.7202 203.848 62.8202 194.749 65.3153L182 69.6884C196.681 48.574 213.108 28.0498 234.58 13.5622C249.664 3.2062 270.492 -5.64736 287.938 4.44034C299.935 11.1744 309.141 22.4426 314.214 35.2132C322.078 55.7374 320.87 78.3274 316.817 99.415C314.643 109.905 311.745 120.207 307.531 130L306.779 129.732L306.752 129.785Z" fill="url(#paint1_linear_131_179)"/>
<path d="M237 78C240.74 67.2038 247.505 59.9013 251.007 49C259.337 59.5861 248.858 75.5308 237 78Z" fill="url(#paint2_linear_131_179)"/>
<path d="M185.143 224C189.132 229.188 191.411 234.99 193.012 241.141C194.179 247.157 192.958 253.843 195.59 259.619L194.233 258.602C204.87 256.704 215.723 254.805 226.577 256.089L227.337 258.388C228.287 261.303 229.101 264.271 229.779 267.293C230.403 270.342 230.919 273.417 231 276.679L230.24 277C225.79 272.374 222.561 267.106 219.631 261.571L223.484 264.111C213.227 265.02 203.106 262.694 193.039 261.223C192.578 254.538 188.101 249.029 185.984 242.959C185.116 239.991 184.573 236.942 184.248 233.841C183.949 230.712 183.841 227.557 184.383 224.241L185.17 224.027L185.143 224Z" fill="url(#paint3_linear_131_179)"/>
<path d="M194.811 260C195.782 267.099 192.923 273.734 188.096 278.731L187.313 274.772C188.581 276.683 189.579 278.622 190.118 280.998C187.178 281.052 184.616 280.151 182 279.086C183.214 271.086 187.178 263.386 194.838 260H194.811Z" fill="url(#paint4_linear_131_179)"/>
<path d="M192.921 419C190.04 369.593 189.213 320.133 189 270.672V268.764L190.387 267.662C206.152 255.243 223.918 264.947 232.668 280.43C240.377 293.548 246.353 307.58 249.474 322.471C255.236 351.852 252.648 381.932 250.701 411.527C248.433 367.685 251.128 322.767 226.106 284.57C222.425 278.763 217.756 273.495 212.128 271.237C206.686 268.898 199.964 270.189 195.402 273.683L196.789 270.672C196.576 320.133 195.722 369.62 192.868 419H192.921Z" fill="url(#paint5_linear_131_179)"/>
<path d="M170 309C187.997 324.85 202.178 344.816 211 367C192.949 351.177 178.85 331.158 170 309Z" fill="url(#paint6_linear_131_179)"/>
<path d="M248.264 7.45517C246.796 15.1662 242.851 23.1718 246.986 30.1064C250.332 35.6755 264.558 38.4333 267.387 30.2135C268.829 26.4919 266.108 17.2547 261.43 17.8705C259.254 18.6737 256.778 21.6189 255.854 23.7876C255.255 24.457 256.343 25.0728 257.241 25.5012C258.519 26.0367 260.859 26.3045 262.028 25.7422C262.246 25.6351 262.463 25.5012 262.518 25.0728C262.545 24.6712 262.436 24.1357 262.191 23.627L262.817 23.0915C263.334 23.4396 263.878 23.868 264.259 24.5373C265.945 28.9016 259.716 30.99 256.343 30.749C247.176 30.2939 246.877 21.0031 251.529 15.1662C263.28 -0.97882 280.852 19.2092 271.222 32.3555C267.876 36.7733 262.382 37.764 257.295 37.9514C252.073 38.0049 246.632 38.4869 242.09 34.7652C233.467 26.7596 240.022 13.1581 247.557 7L248.237 7.45517H248.264Z" fill="url(#paint7_linear_131_179)"/>
<path d="M233.24 129.843C229.482 125.59 223.818 131.475 226.127 135.835C230.744 145.117 245.266 132.678 242.877 126.393C238.609 116.629 218.852 120.775 211.792 125.617C209.94 126.874 208.436 128.452 207.792 130.03C203.739 143.084 211.04 159.989 226.288 159.748C248.327 160.577 274.392 131.368 271.439 109.514C270.097 99.3229 259.521 93.3579 249.883 90.9773C229.16 86.2428 209.322 99.9381 196.867 115.372C185.485 130.084 173.995 151.322 182.21 169.618C186.156 177.67 195.846 181.174 205.564 182.137C236.059 184.705 265.963 169.378 286.928 147.658C292.753 139.178 298.498 124.065 293.237 111.895C288.619 99.4566 278.338 89.8271 268.03 81.642L268.486 81C279.976 88.4629 291.197 97.5039 296.941 110.424C303.115 123.825 299.25 139.927 291.519 151.804C270.446 176.252 237.884 193.853 204.598 190.616C157.808 185.24 168.439 137.092 192.679 111.761C203.658 99.8846 217.912 90.0946 234.233 87.7674C245.078 86.1893 256.326 88.9979 265.238 95.2838C280.352 105.716 275.251 127.195 266.795 140.355C260.89 149.744 253.158 158.09 243.065 163.172C232.596 168.361 218.556 168.843 209.295 160.577C200.517 152.553 198.209 139.794 201.349 128.8C203.631 122.006 210.101 118.742 216.194 116.683C225.643 113.981 237.965 112.751 245.562 120.428C249.024 124.333 248.971 130.458 245.776 134.417C241.454 140.329 232.999 145.625 226.207 140.596C222.529 137.6 222.1 131.234 226.046 128.318C228.355 126.393 232.462 126.526 233.911 129.362L233.24 129.79V129.843Z" fill="url(#paint8_linear_131_179)"/>
<path d="M141.49 130.703C129.311 143.619 120.898 159.211 113.847 175.344C108.906 186.288 103.966 202.474 115.343 211.013C123.809 217.201 142.237 216.499 150.25 210.311C155.378 206.041 154.069 197.394 150.303 190.503C147.793 186.018 144.054 180.667 139.139 179.802C129.818 179.802 121.352 195.313 134.519 196.827L134.572 197.637C132.356 198.151 129.658 198.151 127.361 196.556C120.284 191.017 124.61 179.829 131.074 175.695C133.451 174.128 135.961 172.858 138.872 172.56C142.264 172.398 145.095 173.614 147.392 174.992C160.265 183.126 168.678 205.122 154.977 216.229C146.163 222.498 135.988 221.498 126.373 219.363C117.132 217.337 108.426 210.689 106.289 201.042C100.841 177.614 113.42 153.915 129.792 138.026C133.157 134.864 136.869 131.973 141.036 130L141.49 130.676V130.703Z" fill="url(#paint9_linear_131_179)"/>
<defs>
<linearGradient id="paint0_linear_131_179" x1="160" y1="0" x2="160" y2="419" gradientUnits="userSpaceOnUse">
<stop offset="0.290982" stop-color="white"/>
<stop offset="1" stop-color="white" stop-opacity="0"/>
</linearGradient>
<linearGradient id="paint1_linear_131_179" x1="160" y1="0" x2="160" y2="419" gradientUnits="userSpaceOnUse">
<stop offset="0.290982" stop-color="white"/>
<stop offset="1" stop-color="white" stop-opacity="0"/>
</linearGradient>
<linearGradient id="paint2_linear_131_179" x1="160" y1="0" x2="160" y2="419" gradientUnits="userSpaceOnUse">
<stop offset="0.290982" stop-color="white"/>
<stop offset="1" stop-color="white" stop-opacity="0"/>
</linearGradient>
<linearGradient id="paint3_linear_131_179" x1="160" y1="0" x2="160" y2="419" gradientUnits="userSpaceOnUse">
<stop offset="0.290982" stop-color="white"/>
<stop offset="1" stop-color="white" stop-opacity="0"/>
</linearGradient>
<linearGradient id="paint4_linear_131_179" x1="160" y1="0" x2="160" y2="419" gradientUnits="userSpaceOnUse">
<stop offset="0.290982" stop-color="white"/>
<stop offset="1" stop-color="white" stop-opacity="0"/>
</linearGradient>
<linearGradient id="paint5_linear_131_179" x1="160" y1="0" x2="160" y2="419" gradientUnits="userSpaceOnUse">
<stop offset="0.290982" stop-color="white"/>
<stop offset="1" stop-color="white" stop-opacity="0"/>
</linearGradient>
<linearGradient id="paint6_linear_131_179" x1="160" y1="0" x2="160" y2="419" gradientUnits="userSpaceOnUse">
<stop offset="0.290982" stop-color="white"/>
<stop offset="1" stop-color="white" stop-opacity="0"/>
</linearGradient>
<linearGradient id="paint7_linear_131_179" x1="160" y1="0" x2="160" y2="419" gradientUnits="userSpaceOnUse">
<stop offset="0.290982" stop-color="white"/>
<stop offset="1" stop-color="white" stop-opacity="0"/>
</linearGradient>
<linearGradient id="paint8_linear_131_179" x1="160" y1="0" x2="160" y2="419" gradientUnits="userSpaceOnUse">
<stop offset="0.290982" stop-color="white"/>
<stop offset="1" stop-color="white" stop-opacity="0"/>
</linearGradient>
<linearGradient id="paint9_linear_131_179" x1="160" y1="0" x2="160" y2="419" gradientUnits="userSpaceOnUse">
<stop offset="0.290982" stop-color="white"/>
<stop offset="1" stop-color="white" stop-opacity="0"/>
</linearGradient>
</defs>
</svg>
