<svg width="38" height="38" viewBox="0 0 38 38" fill="none" xmlns="http://www.w3.org/2000/svg">
<path d="M15.8334 23.7498L24.0509 18.9998L15.8334 14.2498V23.7498ZM34.1367 11.3523C34.3426 12.0965 34.4851 13.094 34.5801 14.3607C34.6909 15.6273 34.7384 16.7198 34.7384 17.6698L34.8334 18.9998C34.8334 22.4673 34.5801 25.0165 34.1367 26.6473C33.7409 28.0723 32.8226 28.9907 31.3976 29.3865C30.6534 29.5923 29.2917 29.7348 27.2017 29.8298C25.1434 29.9407 23.2592 29.9882 21.5176 29.9882L19.0001 30.0832C12.3659 30.0832 8.23341 29.8298 6.60258 29.3865C5.17758 28.9907 4.25925 28.0723 3.86341 26.6473C3.65758 25.9032 3.51508 24.9057 3.42008 23.639C3.30925 22.3723 3.26175 21.2798 3.26175 20.3298L3.16675 18.9998C3.16675 15.5323 3.42008 12.9832 3.86341 11.3523C4.25925 9.92734 5.17758 9.009 6.60258 8.61317C7.34675 8.40734 8.70841 8.26484 10.7984 8.16984C12.8567 8.059 14.7409 8.0115 16.4826 8.0115L19.0001 7.9165C25.6342 7.9165 29.7667 8.16984 31.3976 8.61317C32.8226 9.009 33.7409 9.92734 34.1367 11.3523Z" fill="#46B2BB"/>
</svg>
